<svg xmlns="http://www.w3.org/2000/svg" viewBox="0 0 560.235 156.788"><title>ThulaSana Home Daycare on Care.com</title><path d="M31.423 138.084a75.1 75.1 0 0 0 71.727 15.369 84.682 84.682 0 0 1-53.334-23.1C34.89 116.025 26.671 97.159 26.671 77.226c0-33.456 28.283-67.613 61.76-74.583 1.157-.478 2.38-.935 3.631-1.36a75.625 75.625 0 0 0-8.239-.76C44.869 10.878 17.668 47.277 17.668 89.065a93.625 93.625 0 0 0 13.755 49.019"/><path d="M75.705 0C33.888.435 0 35.26 0 78.005a78.643 78.643 0 0 0 24.234 56.935 94.411 94.411 0 0 1-12.165-46.508C12.069 47.441 38.063 11.585 75.7 0"/><path d="M66.535 15.96C45.1 29.739 32.476 51.815 32.476 75.994c0 39.727 34.019 71.972 77.468 73.446a76 76 0 0 0 27.811-17.093 67.537 67.537 0 0 1-27.976 5.993A68.081 68.081 0 0 1 58.72 25.06a64.571 64.571 0 0 1 7.815-9.092"/><path d="M47.273 69.357v.664c0 34.3 28.869 62.208 64.355 62.208a65.449 65.449 0 0 0 28.916-6.638 71.339 71.339 0 0 0 9.017-11.242 68.787 68.787 0 0 1-82.768-7.865 62.7 62.7 0 0 1-19.514-37.125"/><path d="M143.945 83.361a3.626 3.626 0 0 0-3.133-1.467 6.241 6.241 0 0 0-2.285.435 4.806 4.806 0 0 0-1.879 1.347 31.627 31.627 0 0 1-10.522 7.5 32.323 32.323 0 0 1-13.167 2.707 31.913 31.913 0 0 1-12.6-2.518 32.094 32.094 0 0 1-19.648-29.74 31.942 31.942 0 0 1 2.518-12.592A33.039 33.039 0 0 1 90.105 38.7a32 32 0 0 1 22.863-9.444 27.694 27.694 0 0 1 12.932 3.136 56.539 56.539 0 0 1 10.619 7.059 4.71 4.71 0 0 0 3.663 1.542 5.028 5.028 0 0 0 3.173-1.061 3.805 3.805 0 0 0 1.457-3.178 5.375 5.375 0 0 0-.595-2.4 7.239 7.239 0 0 0-1.294-1.869 43.477 43.477 0 0 0-13.454-9.315 40.265 40.265 0 0 0-16.488-3.416A40.9 40.9 0 0 0 96.7 23.042a41.706 41.706 0 0 0-13.261 8.993 42.959 42.959 0 0 0-8.925 13.325 41.966 41.966 0 0 0 0 32.585A41.7 41.7 0 0 0 96.7 100.139a40.761 40.761 0 0 0 16.29 3.292 41.575 41.575 0 0 0 16.944-3.485 40.494 40.494 0 0 0 13.646-9.766 5.479 5.479 0 0 0 .407-6.777m39.684 7.8a21.68 21.68 0 0 1-8.66-1.745 22.553 22.553 0 0 1-11.922-11.913 21.8 21.8 0 0 1-1.74-8.665 22.262 22.262 0 0 1 1.745-8.73 22.426 22.426 0 0 1 11.922-11.977 21.832 21.832 0 0 1 8.66-1.74 22.467 22.467 0 0 1 15.908 6.549 22.615 22.615 0 0 1 4.8 7.178 22.127 22.127 0 0 1 1.75 8.69 25.159 25.159 0 0 1-2.054 8.95 22.882 22.882 0 0 1-4.873 7.054 22.483 22.483 0 0 1-7.049 4.68 21.772 21.772 0 0 1-8.477 1.681m29.382-34.761a33.268 33.268 0 0 0-17.019-17.078 29.351 29.351 0 0 0-12.111-2.583 32.313 32.313 0 0 0-12.74 2.513 31.278 31.278 0 0 0-16.91 17.108 32.266 32.266 0 0 0-2.444 12.473 31.736 31.736 0 0 0 2.513 12.676 30.982 30.982 0 0 0 6.876 10.044 31.893 31.893 0 0 0 22.452 8.993 26.6 26.6 0 0 0 13.34-3.52 41.854 41.854 0 0 0 9.117-6.925v5.944a4.757 4.757 0 1 0 9.514 0V68.848a30.527 30.527 0 0 0-2.578-12.433m46.9-18.552a5.342 5.342 0 0 0-3.807-1.366 28.755 28.755 0 0 0-12.983 2.984 34.868 34.868 0 0 0-8.833 6.219v-4.452a4.761 4.761 0 1 0-9.522 0v54.667a4.759 4.759 0 1 0 9.518 0V67.443a20.341 20.341 0 0 1 1.928-8.083 24.667 24.667 0 0 1 4.759-6.883 22.276 22.276 0 0 1 6.8-4.739A20.072 20.072 0 0 1 256.158 46a5.321 5.321 0 0 0 3.807-1.365 4.657 4.657 0 0 0 0-6.782m57.674 25.967H273.97a23.218 23.218 0 0 1 2.494-6.34 21.13 21.13 0 0 1 4.853-5.79 23.862 23.862 0 0 1 6.623-3.877 21.968 21.968 0 0 1 15.571 0 24.173 24.173 0 0 1 6.628 3.872 22.668 22.668 0 0 1 7.476 12.131m7.431-7.614a34.791 34.791 0 0 0-6.99-10.088 32.625 32.625 0 0 0-10.093-6.861 29.8 29.8 0 0 0-12-2.518 34.814 34.814 0 0 0-12.716 2.836 32.915 32.915 0 0 0-10.158 6.861A32.338 32.338 0 0 0 266.42 81.5a30.839 30.839 0 0 0 6.871 10.044 31.917 31.917 0 0 0 22.457 8.983 35.927 35.927 0 0 0 12.582-2.052 24.915 24.915 0 0 0 9.875-6.945 4.77 4.77 0 0 0-6.734-6.757 23.329 23.329 0 0 1-7.119 4.685 22.063 22.063 0 0 1-8.6 1.681 21.748 21.748 0 0 1-7.857-1.438 22.487 22.487 0 0 1-11.608-9.86 21.2 21.2 0 0 1-2.457-6.541h49.127a5.063 5.063 0 0 0 3.185-1.195 4.315 4.315 0 0 0 1.579-3.559 29.364 29.364 0 0 0-2.652-12.374M341.3 90.327a6.032 6.032 0 1 0 1.775 4.263 5.842 5.842 0 0 0-1.775-4.263m60.644-5.527a4.835 4.835 0 0 0-3.279-1.289 4.6 4.6 0 0 0-3.361 1.373 23.5 23.5 0 0 1-7.119 4.69 22.032 22.032 0 0 1-8.606 1.676 21.628 21.628 0 0 1-8.66-1.745A22.567 22.567 0 0 1 359 77.6a21.662 21.662 0 0 1-1.745-8.66A22.145 22.145 0 0 1 359 60.2a22.49 22.49 0 0 1 4.809-7.178 22.83 22.83 0 0 1 7.114-4.8 21.727 21.727 0 0 1 8.66-1.74 22.035 22.035 0 0 1 8.606 1.681 26.343 26.343 0 0 1 7.109 4.412 4.624 4.624 0 0 0 3.376 1.378 4.528 4.528 0 0 0 3.083-1.215 3.937 3.937 0 0 0 1.413-3.024c0-.877-.561-1.993-1.78-3.5a21.557 21.557 0 0 0-4.739-4.149 35.127 35.127 0 0 0-7.258-3.629 27.263 27.263 0 0 0-9.573-1.591 34.876 34.876 0 0 0-12.726 2.836 33.132 33.132 0 0 0-10.163 6.861 32.324 32.324 0 0 0-6.669 35.078 30.954 30.954 0 0 0 6.876 10.044 31.917 31.917 0 0 0 22.447 8.983 32.65 32.65 0 0 0 10.1-1.452 31.824 31.824 0 0 0 7.466-3.44 17.909 17.909 0 0 0 4.645-4.12c1.115-1.5 1.636-2.606 1.636-3.475a4.321 4.321 0 0 0-1.477-3.341M442 91.13a21.762 21.762 0 0 1-8.659-1.745 22.555 22.555 0 0 1-7.114-4.8 22.883 22.883 0 0 1-4.809-7.116 21.768 21.768 0 0 1-1.74-8.665 22.307 22.307 0 0 1 1.735-8.73 22.444 22.444 0 0 1 11.927-11.982 21.825 21.825 0 0 1 8.66-1.738 22.49 22.49 0 0 1 15.9 6.546 22.676 22.676 0 0 1 4.8 7.178 22.212 22.212 0 0 1 1.74 8.73 21.86 21.86 0 0 1-1.735 8.665 22.851 22.851 0 0 1-4.807 7.115 22.6 22.6 0 0 1-7.183 4.8 22.244 22.244 0 0 1-8.73 1.745m29.392-34.761a33.312 33.312 0 0 0-17.019-17.08 29.364 29.364 0 0 0-12.136-2.583h-.022a34.877 34.877 0 0 0-12.721 2.836 32.989 32.989 0 0 0-10.158 6.861 32.31 32.31 0 0 0-6.668 35.073 30.8 30.8 0 0 0 6.872 10.044 31.925 31.925 0 0 0 22.452 8.993 31.427 31.427 0 0 0 22.655-9.387 33.316 33.316 0 0 0 6.8-10.086 31.154 31.154 0 0 0-.064-24.668m87.114-6.955a21.836 21.836 0 0 0-11.617-11.61 21.332 21.332 0 0 0-8.553-1.745 21.033 21.033 0 0 0-10.168 2.484 23.063 23.063 0 0 0-6.975 5.8 21.936 21.936 0 0 0-6.874-5.8 20.962 20.962 0 0 0-10.161-2.489 16.809 16.809 0 0 0-7.631 1.891 25.706 25.706 0 0 0-4.64 2.974 4.54 4.54 0 0 0-1.378-3.1 4.758 4.758 0 0 0-8.128 3.371v54.68a4.759 4.759 0 1 0 9.518 0V57.5a12.414 12.414 0 0 1 3.713-8.457 12.234 12.234 0 0 1 17.118.064 12.879 12.879 0 0 1 3.832 8.874v37.912a4.759 4.759 0 1 0 9.518.006V57.991a12.086 12.086 0 0 1 .972-4.8 13.222 13.222 0 0 1 2.622-3.966 11.867 11.867 0 0 1 3.877-2.667 12.413 12.413 0 0 1 9.587 0 12.768 12.768 0 0 1 3.961 2.682 12.632 12.632 0 0 1 2.677 3.951 12 12 0 0 1 .972 4.8v37.904a4.757 4.757 0 1 0 9.513 0V57.991a21.593 21.593 0 0 0-1.737-8.561"/></svg>