<svg xmlns="http://www.w3.org/2000/svg" viewBox="0 0 433.275 83.888"><title>ThulaSana Home Daycare on Facebook</title><path d="M33.9 13.149c-5.1 0-6.578 2.268-6.578 7.255v8.275h13.605l-1.36 13.381H27.32v40.588H10.994V42.06H0V28.679h10.994v-8.05C10.994 7.142 16.438 0 31.63 0c3.183-.009 6.363.18 9.522.564v12.585m.908 40.813c0-15.079 7.142-26.417 22.108-26.417 8.163 0 13.149 4.2 15.53 9.409v-8.275h15.649v53.963H79.7v-8.156c-2.268 5.212-7.367 9.29-15.53 9.29-14.97 0-22.11-11.333-22.11-26.412m16.325.225c0 8.05 2.951 13.375 10.543 13.375 6.691 0 10.092-4.874 10.092-12.579v-5.444c0-7.712-3.4-12.586-10.092-12.586-7.593 0-10.543 5.331-10.543 13.381v3.853zm70.966-30.044c6.346 0 12.36 1.359 15.642 3.628l-3.627 11.564c-3.4-1.619-7.115-2.47-10.881-2.493-8.846 0-12.7 5.1-12.7 13.832v3.169c0 8.733 3.853 13.832 12.7 13.832 3.766-.023 7.481-.874 10.881-2.493l3.627 11.565c-3.282 2.268-9.3 3.627-15.642 3.627-19.157 0-27.89-10.318-27.89-26.869v-2.494c0-16.551 8.733-26.869 27.89-26.869M147.148 57.7v-4.758c0-15.3 8.726-25.4 26.53-25.4 16.776 0 24.144 10.205 24.144 25.171v8.617h-34.348c.338 7.374 3.627 10.656 12.7 10.656 5.938.023 11.826-1.093 17.344-3.286l2.944 11.219c-4.3 2.268-13.149 3.965-20.974 3.965-20.629 0-28.341-10.311-28.341-26.186m16.325-7.029H183.2v-1.354c0-5.9-2.38-10.543-9.522-10.543-7.374 0-10.2 4.648-10.2 11.9m94.885 6.686c0 15.079-7.254 26.418-22.22 26.418-8.163 0-13.832-4.085-16.1-9.3v8.162h-15.418V1.578L220.951.106v36.052c2.381-4.761 7.593-8.613 15.192-8.613 14.966 0 22.22 11.332 22.22 26.411m-16.325-.338c0-7.6-2.951-13.262-10.769-13.262-6.691 0-10.318 4.761-10.318 12.466v5.67c0 7.712 3.627 12.473 10.318 12.473 7.818 0 10.769-5.669 10.769-13.268v-4.079zM263.8 57.02V54.3c0-15.53 8.839-26.756 26.869-26.756s26.868 11.227 26.868 26.756v2.72c0 15.536-8.846 26.756-26.869 26.756S263.8 72.556 263.8 57.02m37.412-3.853c0-7.141-2.951-12.811-10.543-12.811s-10.543 5.669-10.543 12.811v4.987c0 7.142 2.944 12.811 10.543 12.811s10.543-5.669 10.543-12.811v-4.987zm21.763 3.853V54.3c0-15.53 8.839-26.756 26.869-26.756s26.868 11.227 26.868 26.756v2.72c0 15.536-8.846 26.756-26.869 26.756s-26.869-11.22-26.868-26.756m37.411-3.853c0-7.141-2.951-12.811-10.543-12.811S339.3 46.025 339.3 53.167v4.987c0 7.142 2.944 12.811 10.543 12.811s10.543-5.669 10.543-12.811v-4.987zm38.766 1.246l16.1-25.734h17.346l-16.895 26.643 17.572 27.32h-17.34l-16.783-26.411v26.411h-16.326V1.584L399.152.106"/></svg>
