<svg xmlns="http://www.w3.org/2000/svg" viewBox="0 0 2500 709"><title>ThulaSana Home Daycare on Instagram</title><g><path d="M129.01 2.465C77.855 23.895 21.618 84.359 3.857 160.313c-22.494 96.206 71.112 136.89 78.789 123.571 9.036-15.679-16.773-20.979-22.086-70.897-6.866-64.474 23.108-136.515 60.835-168.125 7.013-5.873 6.676 2.301 6.676 17.42 0 27.041-1.493 269.75-1.493 320.408 0 68.542-2.831 90.186-7.917 111.569-5.153 21.674-13.432 36.317-7.16 41.963 7.013 6.31 36.948-8.7 54.281-32.889 20.782-29.01 28.055-63.851 29.364-101.687 1.578-45.61 1.51-117.984 1.578-159.266.063-37.861.635-148.728-.665-215.376-.317-16.348-45.654-33.499-67.049-24.539zm2359.38 360.078c-7.421 0-10.803 7.648-13.605 20.525-9.722 44.773-19.932 54.878-33.104 54.878-14.715 0-27.942-22.17-31.336-66.543-2.671-34.891-2.242-99.134 1.174-163.031.698-13.129-2.924-26.12-38.139-38.913-15.153-5.507-37.18-13.605-48.147 12.869-30.983 74.793-43.111 134.176-45.964 158.29-.147 1.249-1.674 1.502-1.948-1.413-1.817-19.318-5.881-54.428-6.386-128.186-.097-14.392-3.146-26.642-19.031-36.671-10.307-6.512-41.605-18.018-52.875-4.325-9.76 11.199-21.072 41.336-32.822 77.06-9.55 29.031-16.2 48.673-16.2 48.673s.122-78.344.24-108.061c.051-11.211-7.64-14.951-9.958-15.624-10.433-3.029-31-8.09-39.725-8.09-10.774 0-13.411 6.02-13.411 14.791 0 1.148-1.699 103.147-1.699 174.469 0 3.096.004 6.479.017 10.071-5.957 32.78-25.275 77.279-46.284 77.279-21.034 0-30.954-18.603-30.954-103.631 0-49.598 1.489-71.171 2.217-107.042.429-20.664 1.249-36.536 1.199-40.133-.156-11.043-19.25-16.609-28.135-18.67-8.927-2.07-16.684-2.877-22.742-2.533-8.573.484-14.636 6.108-14.636 13.845 0 4.148.046 12.032.046 12.032-11.043-17.353-28.808-29.431-40.621-32.931-31.829-9.449-65.042-1.073-90.093 33.978-19.911 27.853-31.913 59.404-36.637 104.729-3.454 33.133-2.326 66.737 3.811 95.154-7.417 32.064-21.186 45.202-36.263 45.202-21.888 0-37.756-35.724-35.914-97.514 1.216-40.642 9.348-69.16 18.237-110.421 3.79-17.593.711-26.797-7.013-35.623-7.084-8.098-22.174-12.229-43.877-7.143-15.456 3.622-37.559 7.526-57.772 10.521 0 0 1.22-4.867 2.221-13.449 5.259-45.005-43.646-41.353-59.249-26.978-9.314 8.582-15.654 18.704-18.06 36.902-3.816 28.876 19.734 42.501 19.734 42.501-7.728 35.379-26.671 81.587-46.225 114.998-10.475 17.9-18.493 31.164-28.833 45.265-.038-5.242-.067-10.483-.084-15.725-.24-74.372.753-132.906 1.186-154.003.429-20.664 1.258-36.111 1.207-39.708-.114-8.077-4.829-11.131-14.64-14.989-8.674-3.416-18.931-5.78-29.57-6.605-13.424-1.043-21.518 6.075-21.303 14.497.042 1.59.042 11.354.042 11.354-11.043-17.353-28.808-29.431-40.621-32.931-31.829-9.449-65.042-1.073-90.093 33.978-19.907 27.853-32.943 66.939-36.637 104.38-3.441 34.896-2.806 64.549 1.885 89.529-5.061 25.014-19.612 51.172-36.065 51.172-21.034 0-33.002-18.603-33.002-103.631 0-49.598 1.489-71.167 2.217-107.042.429-20.664 1.249-36.536 1.199-40.133-.156-11.043-19.25-16.609-28.135-18.67-9.297-2.154-17.324-2.941-23.487-2.486-8.136.606-13.849 7.884-13.849 13.315v12.519c-11.043-17.353-28.808-29.431-40.621-32.931-31.829-9.449-64.856-.938-90.093 33.978-16.457 22.767-29.78 48.008-36.637 103.883-1.981 16.146-2.856 31.269-2.743 45.4-6.563 40.133-35.543 86.387-59.257 86.387-13.874 0-27.088-26.907-27.088-84.258 0-76.396 4.733-185.163 5.528-195.646 0 0 29.957-.509 35.758-.576 14.947-.164 28.48.189 48.378-.829 9.983-.509 19.6-36.334 9.297-40.768-4.665-2.007-37.672-3.765-50.751-4.043-11.001-.248-41.631-2.516-41.631-2.516s2.747-72.197 3.391-79.824c.543-6.361-7.682-9.629-12.398-11.619-11.472-4.846-21.728-7.173-33.89-9.68-16.802-3.466-24.429-.076-25.914 14.11-2.242 21.518-3.403 84.561-3.403 84.561-12.334 0-54.449-2.411-66.783-2.411-11.464 0-23.827 49.283-7.984 49.889 18.228.707 49.994 1.317 71.053 1.952 0 0-.938 110.564-.938 144.698 0 3.63.013 7.126.038 10.521-11.59 60.41-52.417 93.042-52.417 93.042 8.767-39.965-9.141-69.976-41.395-95.381-11.888-9.364-35.346-27.083-61.596-46.506 0 0 15.203-14.985 28.686-45.135 9.554-21.354 9.966-45.791-13.487-51.18-38.741-8.906-70.691 19.545-80.22 49.922-7.383 23.537-3.445 40.995 11.018 59.139 1.056 1.325 2.2 2.676 3.382 4.039-8.746 16.857-20.761 39.552-30.937 57.154-28.249 48.866-49.582 87.519-65.71 87.519-12.89 0-12.713-39.241-12.713-75.984 0-31.673 2.339-79.294 4.207-128.598.618-16.306-7.539-25.594-21.207-34.008-8.304-5.111-26.028-15.161-36.288-15.161-15.363 0-59.691 2.091-101.574 123.243-5.28 15.271-15.649 43.095-15.649 43.095l.892-145.69c0-3.416-1.822-6.722-5.986-8.982-7.059-3.828-25.91-11.665-42.67-11.665-7.985 0-11.973 3.715-11.973 11.119l-1.464 227.938c0 17.319.45 37.525 2.167 46.359 1.704 8.851 4.468 16.045 7.892 20.327 3.416 4.274 7.37 7.534 13.891 8.881 6.066 1.249 39.287 5.515 41.016-7.181 2.07-15.216 2.145-31.673 19.591-93.051 27.159-95.558 62.568-142.182 79.219-158.74 2.907-2.894 6.23-3.067 6.07 1.67-.707 20.946-3.206 73.3-4.893 117.774-4.51 119.019 17.143 141.08 48.084 141.08 23.672 0 57.04-23.525 92.811-83.059 22.296-37.104 43.949-73.485 59.51-99.706 10.841 10.037 23.003 20.836 35.165 32.376 28.253 26.814 37.529 52.295 31.374 76.467-4.707 18.481-22.435 37.525-53.986 19.015-9.196-5.397-13.125-9.57-22.368-15.662-4.968-3.269-12.549-4.249-17.096-.82-11.817 8.906-18.573 20.239-22.431 34.264-3.752 13.647 9.915 20.862 24.084 27.172 12.2 5.431 38.421 10.353 55.143 10.912 65.151 2.179 117.349-31.459 153.679-118.228 6.508 74.936 34.185 117.341 82.281 117.341 32.153 0 64.39-41.559 78.487-82.445 4.047 16.667 10.037 31.156 17.774 43.414 37.058 58.715 108.948 46.077 145.059-3.778 11.161-15.405 12.865-20.946 12.865-20.946 5.267 47.078 43.179 63.531 64.886 63.531 24.311 0 49.413-11.493 67.006-51.1 2.016 4.226 4.277 8.332 6.769 12.297 37.058 58.715 108.948 46.077 145.059-3.778 1.7-2.343 3.18-4.463 4.468-6.369l1.06 30.928-33.242 30.491c-55.728 51.075-98.065 89.816-101.178 134.929-3.959 57.524 42.666 78.903 77.99 81.705 37.449 2.974 69.577-17.732 89.298-46.713 17.353-25.502 28.707-80.396 27.879-134.618-.332-21.711-.879-49.317-1.312-78.907 19.562-22.717 41.605-51.433 61.895-85.037 22.119-36.629 45.821-85.811 57.953-124.088 0 0 20.592.177 42.569-1.262 7.03-.459 9.045.972 7.749 6.129-1.569 6.222-27.765 107.265-3.858 174.574 16.365 46.077 53.254 60.902 75.125 60.902 25.603 0 50.091-19.335 63.216-48.046 1.582 3.201 3.239 6.298 5.04 9.158 37.058 58.715 108.696 46.006 145.059-3.778 8.203-11.232 12.865-20.946 12.865-20.946 7.804 48.723 45.694 63.775 67.397 63.775 22.607 0 44.062-9.268 61.466-50.457.728 18.14 1.872 32.965 3.681 37.638 1.102 2.861 7.526 6.449 12.2 8.182 20.681 7.665 41.774 4.043 49.577 2.465 5.406-1.094 9.621-5.431 10.197-16.63 1.51-29.406.584-78.81 9.499-115.532 14.964-61.621 28.922-85.529 35.543-97.358 3.706-6.63 7.888-7.724 8.039-.707.307 14.198 1.014 55.892 6.815 111.91 4.257 41.197 9.941 65.551 14.312 73.258 12.473 22.035 27.879 23.079 40.423 23.079 7.976 0 24.669-2.2 23.175-16.226-.728-6.836.547-49.085 15.3-109.794 9.633-39.645 25.695-75.462 31.488-88.562 2.137-4.829 3.13-1.022 3.096-.282-1.22 27.302-3.958 116.605 7.164 165.446 15.077 66.169 58.689 73.569 73.889 73.569 32.447 0 58.984-24.681 67.923-89.626 2.176-15.642-1.013-27.712-10.567-27.712zm-1359.176-40.149c-1.859 34.37-8.565 63.102-19.326 83.972-19.469 37.773-57.991 49.75-74.974-4.829-12.246-39.355-8.077-93.021-2.983-122.006 7.56-43.023 26.49-73.523 56.043-70.632 30.357 2.969 45.114 41.979 41.24 113.495zm296.585.496c-1.733 32.456-10.147 65.058-19.326 83.48-18.948 38.034-58.559 49.922-74.974-4.829-11.224-37.411-8.536-85.827-2.983-116.331 7.206-39.586 24.673-76.307 56.043-76.307 30.5-.005 45.539 33.456 41.24 113.987zm7.74 221.426c-.412 59.207-9.726 111.119-29.709 126.196-28.341 21.379-66.434 5.343-58.546-37.861 6.979-38.232 39.986-77.275 88.339-124.98-.004-.001.097 10.878-.084 36.645zm511.978-221.081c-1.649 35.632-9.537 63.485-19.326 83.131-18.952 38.034-58.281 49.842-74.974-4.829-9.099-29.801-9.524-79.576-2.983-121.165 6.659-42.363 25.254-74.364 56.043-71.474 30.37 2.848 44.585 41.98 41.24 114.337z"/></g></svg>
