<svg xmlns="http://www.w3.org/2000/svg" viewBox="0 0 512 511.666"><path d="M511.756,403.8q1.627,12.468-7.588,21.681l-72.088,71.544a40.571,40.571,0,0,1-12.737,9.214A52.632,52.632,0,0,1,403.9,511.12q-.542,0-3.256.274t-7.044.272q-10.3,0-33.337-3.524T303.894,490.8q-33.339-13.821-75.613-41.464t-89.975-75.883q-37.941-37.4-62.874-71.546T35.322,238.759q-15.178-29-22.766-52.576t-10.3-40.651Q-.452,128.458.09,118.7t.542-10.84A52.684,52.684,0,0,1,5.511,92.414a40.618,40.618,0,0,1,9.214-12.737L86.813,7.588Q94.4,0,104.158,0a20.221,20.221,0,0,1,12.466,4.065,37.681,37.681,0,0,1,9.214,10.027l58,110.03a26.378,26.378,0,0,1,2.71,18.971,33.783,33.783,0,0,1-9.214,17.345L150.771,187a9.04,9.04,0,0,0-1.9,3.523,13.376,13.376,0,0,0-.813,4.065q2.168,11.382,9.756,26.017,6.5,13.008,20.055,31.708t38.483,43.09q24.391,24.935,43.361,38.756t31.709,20.325q12.737,6.5,19.512,7.857l6.773,1.356a12.92,12.92,0,0,0,3.524-.813,9.051,9.051,0,0,0,3.524-1.9l30.894-31.437a33.2,33.2,0,0,1,22.766-8.671q9.217,0,14.634,3.252h.541L498.2,385.915Q509.589,392.967,511.756,403.8Z"/></svg>