<?xml version="1.0" encoding="utf-8"?>
<!-- Generator: Adobe Illustrator 21.1.0, SVG Export Plug-In . SVG Version: 6.00 Build 0)  -->
<svg version="1.1" xmlns="http://www.w3.org/2000/svg" xmlns:xlink="http://www.w3.org/1999/xlink" x="0px" y="0px"
	 viewBox="0 0 294.362 178.236" style="enable-background:new 0 0 294.362 178.236;" xml:space="preserve">
<title>ThulaSana Home Daycare of Alameda, California</title>
<g class="logo-bottom">
	<path d="M0,133.744v-2.052h3.02V114H0v-2.052h9.216V114H6.2v7.435h11.612V114h-3.059v-2.052h9.216V114h-3.02v17.7h3.021v2.052
		h-9.217V131.7h3.059v-8.054H6.2v8.054h3.016v2.052L0,133.744z"/>
	<path d="M32.623,132.641c-1.736-0.961-3.176-2.379-4.163-4.1c-0.98-1.715-1.488-3.659-1.471-5.634
		c-0.014-1.987,0.493-3.943,1.471-5.673c0.978-1.739,2.419-3.173,4.163-4.143c1.889-1.044,4.019-1.571,6.176-1.53
		c2.157-0.041,4.287,0.486,6.176,1.53c1.744,0.97,3.185,2.404,4.163,4.143c0.977,1.728,1.484,3.681,1.472,5.666
		c0.017,1.975-0.491,3.919-1.472,5.634c-0.988,1.721-2.427,3.139-4.163,4.1c-1.888,1.046-4.017,1.576-6.175,1.536
		C36.642,134.212,34.512,133.685,32.623,132.641z M43.291,130.647c1.253-0.788,2.265-1.907,2.923-3.233
		c0.694-1.401,1.046-2.947,1.026-4.511c0.021-1.582-0.33-3.148-1.026-4.569c-2.228-4.149-7.398-5.705-11.547-3.477
		c-0.122,0.065-0.242,0.134-0.36,0.205c-1.255,0.805-2.26,1.945-2.9,3.292c-0.682,1.431-1.027,3-1.007,4.586
		c-0.025,1.568,0.319,3.121,1.006,4.531c0.647,1.316,1.652,2.423,2.9,3.194c1.355,0.812,2.913,1.222,4.492,1.181
		C40.38,131.887,41.941,131.471,43.291,130.647L43.291,130.647z"/>
	<path d="M53.32,133.744v-2.052h2.943V114H53.32v-2.052h7.4l7.125,15.3l6.776-15.3h7.512V114h-2.946v17.7h2.943v2.052h-8.79V131.7
		h2.827v-17.162l-8.209,18.083H66.95l-8.325-18.083v17.154h2.827v2.052H53.32z"/>
	<path d="M86.35,133.744v-2.052h3.02V114h-3.02v-2.052h18.974v6.467h-2.439V114h-10.34v7.4h6.776v-2.556h1.588v7.28h-1.587v-2.594
		h-6.777v8.17h10.533v-4.531h2.439v6.583L86.35,133.744z"/>
	<path d="M123.058,131.692h3.021V114h-3.021v-2.052h11.849c2.145-0.065,4.267,0.457,6.137,1.51c1.619,0.932,2.937,2.309,3.795,3.969
		c0.832,1.61,1.264,3.396,1.259,5.208c0.038,1.995-0.393,3.972-1.259,5.77c-0.823,1.662-2.133,3.033-3.756,3.93
		c-1.888,0.996-4.004,1.484-6.138,1.414h-11.887V131.692z M134.636,131.692c2.762,0,4.821-0.826,6.176-2.478
		c1.424-1.861,2.144-4.165,2.033-6.505c0.015-1.481-0.289-2.947-0.891-4.3c-0.581-1.301-1.521-2.409-2.71-3.195
		c-1.341-0.849-2.906-1.274-4.492-1.22h-5.5v17.7L134.636,131.692z"/>
	<path d="M148.3,133.744v-2.052h2.788L157.4,114h-2.438v-2.052h10.649V114H163.1l6.506,17.7h2.633v2.052h-8.867V131.7h2.9
		l-2.209-6.351h-7.9L154,131.692h2.9v2.052H148.3z M156.78,123.289h6.66l-3.174-9.254h-0.232L156.78,123.289z"/>
	<path d="M179.746,133.744v-2.052h3.175v-7.28L175.642,114h-2.9v-2.052h9.058V114h-2.75l5.731,8.364l5.536-8.364h-2.788v-2.052h8.6
		V114h-2.981l-7.087,10.378v7.318h3.214v2.052L179.746,133.744z"/>
	<path d="M219.436,127.858c-1.626,4.157-5.034,6.261-10.223,6.312c-2.08,0.041-4.135-0.459-5.963-1.452
		c-1.692-0.93-3.088-2.319-4.027-4.007c-1.903-3.664-1.911-8.024-0.02-11.694c0.932-1.693,2.329-3.084,4.027-4.008
		c1.849-0.994,3.922-1.494,6.021-1.452c1.508-0.025,3.002,0.286,4.375,0.91c1.215,0.544,2.259,1.408,3.021,2.5v-3.021h2.323v6.583
		l-2.091,0.077c-2.065-4.194-7.139-5.919-11.332-3.854c-0.195,0.096-0.387,0.2-0.575,0.311c-1.263,0.772-2.288,1.878-2.962,3.195
		c-0.711,1.403-1.071,2.957-1.046,4.53c-0.036,1.653,0.337,3.289,1.085,4.763c0.681,1.326,1.73,2.428,3.02,3.175
		c1.319,0.756,2.817,1.144,4.337,1.123c1.652,0.028,3.281-0.401,4.705-1.239c1.439-0.899,2.504-2.288,3-3.911L219.436,127.858z"/>
	<path d="M222.34,133.744v-2.052h2.788l6.312-17.7H229v-2.052h10.649V114h-2.518l6.506,17.7h2.633v2.052h-8.87V131.7h2.9
		l-2.208-6.351h-7.9l-2.169,6.351h2.9v2.052L222.34,133.744z M230.82,123.289h6.66l-3.175-9.254h-0.232L230.82,123.289z"/>
	<path d="M250.064,131.692h3.021V114h-3.021v-2.052h11.462c1.922-0.113,3.83,0.396,5.44,1.452c1.319,0.998,2.053,2.589,1.956,4.24
		c0,3.305-1.872,5.241-5.615,5.808l5,8.248h3.214v2.052h-5.382l-5.848-9.99h-2.672v-2.13h3.408c1.331,0.135,2.659-0.277,3.679-1.142
		c0.72-0.755,1.11-1.765,1.084-2.808c0.036-0.995-0.351-1.958-1.064-2.652c-0.878-0.743-2.014-1.112-3.161-1.026h-5.3v17.7h3.02
		v2.052h-9.216L250.064,131.692z"/>
	<path d="M275.194,133.744v-2.052h3.021V114h-3.021v-2.052h18.975v6.467h-2.439V114h-10.339v7.4h6.776v-2.556h1.587v7.28h-1.587
		v-2.594h-6.776v8.17h10.532v-4.531h2.439v6.583L275.194,133.744z"/>
	<path d="M3.8,173.072c-1.094-0.583-2.004-1.46-2.628-2.532c-1.232-2.221-1.232-4.919,0-7.14c0.623-1.079,1.532-1.964,2.628-2.557
		c1.201-0.648,2.548-0.974,3.912-0.947c1.36-0.028,2.704,0.298,3.9,0.947c1.092,0.598,2.001,1.482,2.628,2.557
		c1.244,2.216,1.249,4.92,0.012,7.14c-0.624,1.072-1.534,1.948-2.628,2.532c-1.203,0.64-2.55,0.963-3.912,0.936
		C6.35,174.035,5.003,173.712,3.8,173.072z M10.268,171.511c0.726-0.462,1.304-1.121,1.668-1.9c0.391-0.833,0.588-1.744,0.576-2.664
		c0.014-0.928-0.183-1.847-0.576-2.688c-0.364-0.779-0.942-1.438-1.668-1.9c-0.766-0.476-1.654-0.719-2.556-0.7
		c-0.902-0.019-1.79,0.224-2.556,0.7c-0.727,0.464-1.303,1.13-1.656,1.917c-0.384,0.848-0.577,1.769-0.564,2.7
		c-0.015,0.924,0.182,1.84,0.576,2.676c0.363,0.768,0.938,1.418,1.656,1.872c0.764,0.468,1.648,0.706,2.544,0.684
		c0.902,0.021,1.791-0.221,2.558-0.697H10.268z"/>
	<path d="M18.561,173.744v-1.584h1.752v-10.44h-1.752v-1.584h11.952v4.32h-1.776v-2.736h-5.9v4.18h3.552v-1.44h1.3v4.561h-1.3V167.5
		h-3.556v4.656h1.8v1.584L18.561,173.744z"/>
	<path d="M40.328,173.744v-2.053h2.788L49.428,154h-2.439v-2.053h10.648V154H55.12l6.505,17.7h2.633v2.053h-8.867V171.7h2.9
		l-2.207-6.35h-7.9l-2.168,6.35h2.9v2.053L40.328,173.744z M48.808,163.289h6.66l-3.175-9.255h-0.232L48.808,163.289z"/>
	<path d="M68.982,173.744v-2.053H72V154h-3.02v-2.053h9.22V154h-3.022v17.7h9.061V165h2.556v8.751L68.982,173.744z"/>
	<path d="M90.976,173.744v-2.053h2.788l6.312-17.7h-2.439v-2.053h10.648V154h-2.517l6.505,17.7h2.633v2.053h-8.868V171.7h2.9
		l-2.207-6.35h-7.9l-2.168,6.35h2.9v2.053L90.976,173.744z M99.456,163.289h6.66l-3.175-9.255h-0.232L99.456,163.289z"/>
	<path d="M118.507,173.744v-2.053h2.943V154h-2.943v-2.053h7.4l7.125,15.3l6.776-15.3h7.512V154h-2.943v17.7h2.943v2.053h-8.79
		V171.7h2.827v-17.162l-8.209,18.083h-1.007l-8.325-18.083v17.153h2.827v2.053L118.507,173.744z"/>
	<path d="M152.467,173.744v-2.053h3.021V154h-3.021v-2.053h18.973v6.467H169V154h-10.337v7.4h6.775v-2.556h1.588v7.28h-1.588v-2.595
		h-6.775v8.17h10.531v-4.53h2.439v6.583L152.467,173.744z"/>
	<path d="M176.745,171.691h3.021V154h-3.021v-2.053h11.849c2.145-0.064,4.268,0.458,6.138,1.511
		c1.619,0.932,2.937,2.309,3.795,3.969c0.832,1.61,1.264,3.396,1.259,5.208c0.038,1.995-0.393,3.972-1.259,5.77
		c-0.823,1.662-2.133,3.033-3.756,3.931c-1.889,0.996-4.004,1.483-6.138,1.413h-11.888V171.691z M188.323,171.691
		c2.762,0,4.821-0.826,6.176-2.478c1.424-1.861,2.144-4.165,2.033-6.506c0.015-1.481-0.289-2.947-0.891-4.3
		c-0.581-1.301-1.521-2.41-2.711-3.194c-1.34-0.849-2.905-1.275-4.491-1.22h-5.5v17.7L188.323,171.691z"/>
	<path d="M200.984,173.744v-2.053h2.788l6.312-17.7h-2.439v-2.053h10.649V154h-2.518l6.506,17.7h2.633v2.053h-8.867V171.7h2.9
		l-2.208-6.35h-7.9l-2.169,6.35h2.9v2.053L200.984,173.744z M209.464,163.289h6.66l-3.175-9.255h-0.232L209.464,163.289z"/>
	<path d="M230.451,176.764c0.639-0.044,1.233-0.344,1.646-0.833c0.354-0.672,0.508-1.43,0.445-2.187h-1.975v-3.679h3.795v3.1
		c0.092,1.331-0.233,2.657-0.93,3.795c-0.718,0.898-1.836,1.377-2.981,1.278V176.764z"/>
	<path d="M268.089,167.858c-1.626,4.156-5.034,6.26-10.223,6.312c-2.08,0.042-4.135-0.459-5.963-1.452
		c-1.693-0.931-3.088-2.32-4.027-4.008c-1.903-3.664-1.911-8.023-0.02-11.693c0.932-1.693,2.329-3.084,4.027-4.008
		c1.848-0.995,3.922-1.495,6.021-1.452c1.508-0.025,3.002,0.286,4.375,0.909c1.215,0.544,2.259,1.408,3.021,2.5v-3.021h2.323v6.583
		l-2.091,0.077c-2.066-4.194-7.14-5.919-11.334-3.853c-0.195,0.096-0.386,0.199-0.573,0.31c-1.262,0.772-2.287,1.877-2.962,3.194
		c-0.711,1.403-1.07,2.958-1.046,4.531c-0.036,1.653,0.337,3.289,1.085,4.763c0.681,1.326,1.73,2.428,3.02,3.175
		c1.319,0.756,2.817,1.144,4.337,1.123c1.652,0.028,3.281-0.401,4.705-1.239c1.439-0.899,2.504-2.288,3-3.911L268.089,167.858z"/>
	<path d="M269.6,173.744v-2.053h2.788L278.7,154h-2.439v-2.053h10.649V154h-2.518l6.506,17.7h2.633v2.053h-8.867V171.7h2.9
		l-2.208-6.35h-7.9l-2.169,6.35h2.9v2.053L269.6,173.744z M278.08,163.289h6.66l-3.175-9.255h-0.232L278.08,163.289z"/>
</g>
<g class="logo-middle">
	<path d="M7.562,92.829v-4.2h3.45v-20.3H4.961v6.25h-4.6v-10.35h28.05v10.35h-4.55v-6.25h-6v20.3h3.5v4.2L7.562,92.829z"/>
	<path d="M31.912,92.829v-4.2h3.25v-20.2h-3.25v-4.2h13.35v4.2h-3.25v7.75h11.85v-7.75h-3.25v-4.2h13.35v4.2h-3.25v20.2h3.25v4.2
		H50.611v-4.2h3.25v-8.35h-11.85v8.35h3.25v4.2L31.912,92.829z"/>
	<path d="M74.036,90.48c-2.117-1.901-3.176-4.584-3.175-8.051v-14h-3.2v-4.2h13.35v4.2h-3.35v14.2
		c-0.328,3.151,1.961,5.972,5.112,6.3c0.395,0.041,0.793,0.041,1.188,0c1.779,0.113,3.53-0.479,4.875-1.649
		c1.204-1.238,1.831-2.926,1.725-4.65v-14.2H87.71v-4.2h11.35v4.2h-3.15v14.1c0,3.533-1.083,6.217-3.25,8.05
		c-2.167,1.833-5.217,2.75-9.15,2.75C79.31,93.329,76.152,92.379,74.036,90.48z"/>
	<path d="M102.611,92.829v-4.2h3.25v-20.45h-3.25v-3.95h13.35v3.95h-3.25v20.45h9.3v-8h4.8v12.2L102.611,92.829z"/>
	<path d="M129.21,92.829v-4.2h3.2l7.45-20.2h-2.95v-4.2h17.65v4.2h-2.95l7.6,20.2h3.05v4.2h-13.5v-4.2h3.4l-2.1-6.25h-9.35
		l-2.1,6.25h3.15v4.2L129.21,92.829z M141.96,78.379h6.9l-3.25-9.9h-0.25L141.96,78.379z"/>
	<path d="M186.46,78.454c1.617,1.592,2.457,3.811,2.3,6.075c0.096,2.401-0.852,4.726-2.6,6.375c-1.945,1.694-4.474,2.564-7.05,2.425
		c-1.717,0.003-3.417-0.337-5-1c-1.46-0.565-2.751-1.494-3.75-2.7v3.2h-4.8v-9.7h4.3c0.486,1.765,1.541,3.32,3,4.425
		c1.529,1.138,3.395,1.728,5.3,1.676c1.118,0.067,2.224-0.261,3.125-0.926c0.766-0.65,1.182-1.622,1.125-2.625
		c0.096-1.077-0.343-2.133-1.175-2.824c-1.294-0.773-2.731-1.275-4.225-1.476l-2.55-0.5c-2.509-0.371-4.865-1.436-6.8-3.075
		c-3.161-3.367-3.05-8.644,0.25-11.875c1.907-1.572,4.332-2.374,6.8-2.25c1.613-0.027,3.217,0.253,4.725,0.825
		c1.307,0.498,2.48,1.294,3.425,2.325v-2.6h4.5v8.25h-4.15c-0.458-1.32-1.281-2.482-2.375-3.351
		c-1.357-0.974-3.009-1.451-4.676-1.35c-1.079-0.067-2.148,0.242-3.024,0.875c-0.714,0.577-1.113,1.458-1.075,2.375
		c-0.045,1.046,0.457,2.04,1.325,2.625c1.296,0.769,2.732,1.27,4.225,1.475l1.55,0.3C182.493,76.062,184.926,77.071,186.46,78.454z"
		/>
	<path d="M191.01,92.829v-4.2h3.2l7.45-20.2h-2.95v-4.2h17.65v4.2h-2.95l7.6,20.2h3.05v4.2h-13.5v-4.2h3.4l-2.1-6.25h-9.35
		l-2.1,6.25h3.15v4.2L191.01,92.829z M203.76,78.379h6.9l-3.25-9.9h-0.25L203.76,78.379z"/>
	<path d="M227.059,92.829v-4.2h3.3v-20.2h-3.3v-4.2h11.25l13.55,19.9v-15.7h-3.5v-4.2h11.5v4.2h-3.25v24.4h-6.9l-14.7-21.65v17.45
		h3.5v4.2L227.059,92.829z"/>
	<path d="M260.658,92.829v-4.2h3.2l7.45-20.2h-2.95v-4.2h17.649v4.2h-2.949l7.6,20.2h3.05v4.2h-13.5v-4.2h3.4l-2.1-6.25h-9.35
		l-2.1,6.25h3.149v4.2L260.658,92.829z M273.408,78.379h6.9l-3.25-9.9h-0.25L273.408,78.379z"/>
</g>
<g class="logo-top">
	<path d="M96.413,52.234h20.978c0-0.023,0-0.045,0-0.068c0.019-17.654,14.346-31.951,32-31.932
		c17.654,0.019,31.951,14.346,31.932,32l0,0h20.549l-16.177-6.223L199.3,34.29l-17.959-0.326l8.781-15.669l-16.987,5.836
		L176.032,6.4l-13.967,11.3L158.72,0.05l-9.262,15.39L140.278,0l-3.44,17.63L122.932,6.261L125.73,24l-16.956-5.927l8.7,15.716
		l-17.96,0.23l13.548,11.794l-16.8,6.359L96.413,52.234z"/>
	<path d="M177.323,52.234c0.014-15.445-12.496-27.977-27.941-27.99s-27.977,12.496-27.991,27.941c0,0.017,0,0.033,0,0.049H177.323z"
		/>
</g>
</svg>
