<?xml version="1.0" standalone="no"?>
<!DOCTYPE svg PUBLIC "-//W3C//DTD SVG 1.1//EN" "http://www.w3.org/Graphics/SVG/1.1/DTD/svg11.dtd" >
<svg xmlns="http://www.w3.org/2000/svg" xmlns:xlink="http://www.w3.org/1999/xlink" version="1.1">
<metadata></metadata>
<defs>
<font id="rokkittbold" horiz-adv-x="1454" >
<font-face units-per-em="2048" ascent="1638" descent="-410" />
<missing-glyph horiz-adv-x="638" />
<glyph unicode="&#xfb01;" horiz-adv-x="1167" d="M53 662v153h119v88q0 193 122 298.5t333 105.5q170 0 278.5 -58.5t108.5 -156.5q0 -59 -35 -94t-98 -35t-100.5 34.5t-37.5 92.5q0 25 13 38q-18 16 -52 25.5t-73 9.5q-98 0 -153.5 -63.5t-55.5 -194.5v-90h594v-661h117v-154h-486v154h121v508h-346v-508h145v-154h-512 v154h117v508h-119z" />
<glyph horiz-adv-x="0" />
<glyph unicode="&#xd;" horiz-adv-x="638" />
<glyph horiz-adv-x="0" />
<glyph horiz-adv-x="0" />
<glyph unicode=" "  horiz-adv-x="638" />
<glyph unicode="&#x09;" horiz-adv-x="638" />
<glyph unicode="&#xa0;" horiz-adv-x="638" />
<glyph unicode="!" horiz-adv-x="415" d="M61 109q0 55 38 91t98 36q61 0 99 -36t38 -91q0 -53 -38 -89t-99 -36q-60 0 -98 35.5t-38 89.5zM80 854v365h227v-365l-45 -516h-139z" />
<glyph unicode="&#x22;" horiz-adv-x="718" d="M96 1319h221l-34 -449h-146zM399 1319h221l-34 -449h-146z" />
<glyph unicode="#" horiz-adv-x="1239" d="M70 317l18 140h205l49 282h-207l19 142h219l53 295h176l-53 -295h254l51 295h178l-55 -295h207l-19 -142h-217l-49 -282h217l-18 -140h-230l-57 -321h-176l57 321h-254l-57 -321h-174l55 321h-192zM469 457h252l49 282h-252z" />
<glyph unicode="$" horiz-adv-x="1183" d="M100 854q0 156 104.5 248t278.5 92q31 0 45 -2v162h113v-183q106 -31 176 -106v106h184v-337h-170q-49 143 -190 180v-297l25 -4q204 -39 298.5 -124t94.5 -249q0 -162 -106.5 -261t-288.5 -99h-23v-158h-113v174q-150 41 -223 135v-131h-196v397h176q27 -90 90 -153.5 t153 -83.5v319l-55 10q-184 37 -278.5 126.5t-94.5 238.5zM375 893q0 -57 37 -93t116 -59v285q-74 -2 -113.5 -38t-39.5 -95zM641 147q74 5 116 42.5t42 103.5q0 70 -35 104.5t-123 57.5v-308z" />
<glyph unicode="%" horiz-adv-x="1638" d="M100 897q0 131 85 214t218 83q135 0 221.5 -83t86.5 -214q0 -133 -86 -217t-222 -84q-133 0 -218 84t-85 217zM264 897q0 -78 39 -127t100 -49q64 2 103 50t39 126t-38 126t-99 48q-63 0 -103.5 -47t-40.5 -127zM369 -2l772 1180h129l-766 -1180h-135zM930 281 q0 131 85 212.5t218 81.5q135 0 220 -81.5t85 -212.5q0 -133 -85 -218.5t-220 -85.5q-133 0 -218 85t-85 219zM1094 281q0 -80 38.5 -129.5t100.5 -49.5q65 2 103 50.5t38 128.5q0 78 -37 125t-100 47t-103 -46.5t-40 -125.5z" />
<glyph unicode="&#x26;" horiz-adv-x="1452" d="M113 346q0 115 77.5 196t221.5 140q-53 66 -80 123t-27 131q0 109 92 181.5t250 72.5q96 0 168 -34t110 -89t38 -121q0 -94 -57.5 -166.5t-186.5 -132.5l217 -246q61 84 104 271h295v-156l-141 -2q-47 -143 -133 -254l92 -100h182v-160h-338l-88 113q-145 -133 -364 -133 q-133 0 -231.5 49t-149.5 133t-51 184zM362 354q0 -47 26 -93t75 -76.5t115 -30.5q65 0 116 21.5t94 70.5l-270 313q-156 -68 -156 -205zM530 950q0 -41 20.5 -81t63.5 -95q76 33 110 74t34 96q0 51 -31 79t-82 28q-55 0 -85 -27t-30 -74z" />
<glyph unicode="'" horiz-adv-x="415" d="M96 1319h221l-34 -449h-146z" />
<glyph unicode="(" horiz-adv-x="673" d="M109 518q0 238 129 427.5t356 266.5l6 -133q-119 -76 -179.5 -222t-60.5 -337q0 -190 60.5 -337.5t179.5 -223.5l-6 -133q-227 78 -356 266.5t-129 425.5z" />
<glyph unicode=")" horiz-adv-x="673" d="M98 -41q119 76 179.5 223.5t60.5 337.5t-60.5 337t-179.5 222l6 133q227 -78 357.5 -267t130.5 -427t-129 -426t-359 -266z" />
<glyph unicode="*" horiz-adv-x="923" d="M66 817l53 189l317 -162l-78 346h217l-79 -346l319 162l53 -189l-333 -41l253 -237l-176 -125l-145 327l-148 -327l-176 125l258 237z" />
<glyph unicode="+" horiz-adv-x="1198" d="M154 504v147h364v379h162v-379h364v-147h-364v-381h-162v381h-364z" />
<glyph unicode="," horiz-adv-x="538" d="M125 -166q61 6 89 44t28 122h-115v233h248v-190q0 -154 -58.5 -227.5t-191.5 -73.5v92z" />
<glyph unicode="-" horiz-adv-x="757" d="M106 403v160h545v-160h-545z" />
<glyph unicode="." horiz-adv-x="530" d="M123 0v231h244v-231h-244z" />
<glyph unicode="/" horiz-adv-x="757" d="M20 -287l584 1520h207l-584 -1520h-207z" />
<glyph unicode="0" horiz-adv-x="1150" d="M92 590q0 285 125 443.5t358 158.5q231 0 356.5 -157.5t125.5 -444.5q0 -293 -124 -453t-358 -160q-233 0 -358 160t-125 453zM350 590q0 -424 225 -424q226 0 226 424q0 416 -226 416q-225 0 -225 -416z" />
<glyph unicode="1" horiz-adv-x="768" d="M76 1114l463 57v-1007h186v-164h-645v164h192v825l-188 -26z" />
<glyph unicode="2" horiz-adv-x="1034" d="M86 0l2 158l350 338q131 127 181.5 198.5t50.5 153.5q0 74 -42 120t-124 46q-86 0 -136.5 -53.5t-50.5 -145.5q0 -43 15 -119h-219q-20 72 -21 135q0 160 113.5 260.5t318.5 100.5q184 0 290 -86t106 -229q0 -119 -75 -224.5t-259 -275.5l-215 -207h385v195h174v-365 h-844z" />
<glyph unicode="3" horiz-adv-x="1073" d="M61 268l201 88q37 -92 104.5 -141t157.5 -49t144.5 45t54.5 123q0 96 -69.5 144t-213.5 48v152q129 0 199 46t70 134q0 70 -46.5 111t-132.5 41q-88 0 -147 -50.5t-82 -138.5l-209 76q41 143 163 219t294 76q190 0 297.5 -85t107.5 -224q0 -98 -57 -169t-154 -102 q109 -28 173.5 -104t64.5 -189q0 -158 -121 -248.5t-325 -90.5q-180 0 -298 74.5t-176 213.5z" />
<glyph unicode="4" horiz-adv-x="1075" d="M39 463l557 708h235v-688h175v-145h-175v-176h142v-162h-582v162h199v176h-531zM242 483h348v453z" />
<glyph unicode="5" horiz-adv-x="1101" d="M96 156l109 159q76 -70 152.5 -106.5t168.5 -36.5q111 0 172.5 56.5t61.5 152.5q0 90 -56.5 144.5t-152.5 54.5q-125 0 -223 -95l-176 66l14 620h776v-303h-178v138h-414l-8 -318q115 76 274 76q183 0 284 -103.5t101 -277.5q0 -127 -58 -218t-161.5 -139.5t-234.5 -48.5 q-252 0 -451 179z" />
<glyph unicode="6" horiz-adv-x="1050" d="M86 383q0 123 42 225.5t157 274.5l268 395l182 -121l-274 -401q57 20 119 20q116 0 205 -48t139.5 -137t50.5 -204q0 -121 -56.5 -213t-158 -143t-232.5 -51q-201 0 -321.5 109.5t-120.5 293.5zM332 385q0 -100 52 -162.5t148 -62.5q95 0 148 62.5t53 166.5 q0 102 -51 161.5t-143 59.5q-90 0 -148.5 -60.5t-58.5 -164.5z" />
<glyph unicode="7" horiz-adv-x="989" d="M41 823v348h866v-153l-387 -1018h-258l385 1008h-411v-185h-195z" />
<glyph unicode="8" horiz-adv-x="1062" d="M78 311q0 102 56 177t159 114q-178 88 -178 266q0 147 115.5 235.5t308.5 88.5q184 0 296.5 -83t112.5 -224q0 -96 -48 -167t-140 -112q225 -76 225 -282q0 -102 -56.5 -180t-159.5 -122.5t-241 -44.5q-209 0 -329.5 92.5t-120.5 241.5zM322 317q0 -90 55 -144t149 -54 q92 0 144.5 53t52.5 143q0 92 -63.5 142.5t-206.5 81.5q-53 -20 -92 -80t-39 -142zM375 868q0 -84 57 -132t172 -72q45 30 78 83.5t33 129.5q0 78 -44 122.5t-126 44.5t-126 -47t-44 -129z" />
<glyph unicode="9" horiz-adv-x="1050" d="M76 784q0 123 56 215.5t157.5 143.5t232.5 51q201 0 322 -110.5t121 -295.5q0 -121 -43 -223t-158 -274l-266 -395l-183 120l275 402q-61 -20 -121 -21q-176 0 -284.5 106.5t-108.5 280.5zM317 784q0 -102 51.5 -161.5t143.5 -59.5q88 0 146.5 60.5t58.5 162.5 q0 100 -52.5 163t-148.5 63q-94 0 -146.5 -62.5t-52.5 -165.5z" />
<glyph unicode=":" horiz-adv-x="530" d="M123 0v231h244v-231h-244zM123 582v231h244v-231h-244z" />
<glyph unicode=";" horiz-adv-x="538" d="M123 582v231h244v-231h-244zM125 -166q61 6 89 44t28 122h-115v233h248v-190q0 -154 -58.5 -227.5t-191.5 -73.5v92z" />
<glyph unicode="&#x3c;" horiz-adv-x="1079" d="M154 510v139l813 389v-170l-633 -288l633 -289v-170z" />
<glyph unicode="=" horiz-adv-x="1175" d="M154 324v145h868v-145h-868zM154 696v146h868v-146h-868z" />
<glyph unicode="&#x3e;" horiz-adv-x="1079" d="M113 121v170l632 289l-632 288v170l813 -389v-139z" />
<glyph unicode="?" horiz-adv-x="956" d="M49 860q4 186 123 279.5t305 93.5t293 -85t107 -226q0 -90 -43 -156t-138 -148q-90 -76 -118.5 -122.5t-28.5 -133.5v-24h-219v24q0 102 36.5 165t127.5 143q72 63 99.5 109t27.5 110q0 74 -43 113.5t-117 39.5q-86 0 -131 -46t-49 -136h-232zM303 109q0 55 38 91t97 36 t98 -36t39 -91q0 -53 -38.5 -89t-98.5 -36q-59 0 -97 35.5t-38 89.5z" />
<glyph unicode="@" horiz-adv-x="1462" d="M106 555q0 170 80 322.5t233.5 248t362.5 95.5q193 0 321 -75t188.5 -193.5t60.5 -256.5q0 -121 -48.5 -229.5t-130 -176t-178.5 -67.5q-57 0 -87.5 32t-26.5 112q-39 -70 -95.5 -109t-130.5 -39q-70 0 -131 37t-98 107.5t-37 166.5q0 104 42 201.5t123 159t194 61.5 q74 0 128 -41t70 -108l25 133h123l-101 -463q-12 -68 -12 -102q0 -49 20 -52q41 -10 99.5 37t100.5 137.5t42 202.5q0 113 -54 209t-159.5 154.5t-253.5 58.5q-156 0 -279.5 -72.5t-194.5 -201.5t-71 -291q0 -233 147.5 -371.5t412.5 -138.5q227 0 368 111l66 -78 q-176 -135 -434 -135q-224 0 -378.5 86t-230.5 226t-76 302zM514 528q0 -90 42 -149.5t122 -59.5q63 0 115.5 48.5t83 128t30.5 170.5q0 86 -46 134t-126 48q-68 0 -118 -47t-76.5 -121t-26.5 -152z" />
<glyph unicode="A" d="M49 0v172h131l305 827h-120v172h722v-172h-120l311 -827h125v-172h-553v172h139l-86 256h-383l-86 -256h129v-172h-514zM571 592h283l-133 405h-10z" />
<glyph unicode="B" horiz-adv-x="1288" d="M90 0v172h133v827h-133v172h643q211 0 316.5 -74.5t105.5 -211.5q0 -201 -209 -250q137 -27 204 -106.5t67 -196.5q0 -154 -114 -243t-345 -89h-668zM504 174h198q223 0 224 182q0 86 -56.5 132.5t-171.5 46.5h-194v-361zM504 700h180q186 0 186 154q0 76 -49 110.5 t-157 34.5h-160v-299z" />
<glyph unicode="C" horiz-adv-x="1427" d="M84 586q0 180 79 317t220 213t324 76q129 0 229 -41t162 -117v137h190v-393l-164 -2q-59 113 -146 167t-212 54q-180 0 -286.5 -113.5t-106.5 -293.5q0 -125 48 -219.5t133 -145.5t194 -51q131 0 222 67.5t130 204.5l217 -84q-55 -186 -208 -284t-378 -101 q-188 0 -334.5 76t-229.5 213t-83 320z" />
<glyph unicode="D" horiz-adv-x="1464" d="M92 0v172h133v827h-133v172h674q199 0 337 -77.5t207.5 -209.5t69.5 -290q0 -270 -157.5 -432t-454.5 -162h-676zM506 172h217q186 0 275 111.5t89 308.5q0 184 -90 295.5t-272 111.5h-219v-827z" />
<glyph unicode="E" horiz-adv-x="1282" d="M90 0v172h133v827h-133v172h1077v-383h-182v211h-479v-313h246v123h141v-416h-139v127h-248v-346h487v225h185v-399h-1088z" />
<glyph unicode="F" horiz-adv-x="1198" d="M90 0v172h133v827h-133v172h1067v-391h-184v219h-469v-311h241v119h144v-412h-141v125h-244v-348h143v-172h-557z" />
<glyph unicode="G" horiz-adv-x="1464" d="M82 586q0 178 80 316t224 214t331 76q131 0 230.5 -40t162.5 -114v133h197v-397h-170q-109 223 -365 223q-180 0 -286.5 -108.5t-106.5 -296.5q0 -193 102.5 -304.5t274.5 -111.5q141 2 231 68.5t100 201.5h-219v177h492v-76q0 -272 -167 -419.5t-450 -147.5 q-199 0 -349 75.5t-231 214t-81 316.5z" />
<glyph unicode="H" horiz-adv-x="1492" d="M90 0v172h133v827h-133v172h547v-172h-133v-317h485v317h-133v172h547v-172h-133v-827h133v-172h-547v172h133v342h-485v-342h133v-172h-547z" />
<glyph unicode="I" horiz-adv-x="753" d="M102 0v172h134v827h-134v172h549v-172h-135v-827h135v-172h-549z" />
<glyph unicode="J" horiz-adv-x="747" d="M43 -57h92q80 0 110.5 44t30.5 134v889h-141v161h549v-161h-127v-875q0 -209 -86 -306t-283 -97h-145v211z" />
<glyph unicode="K" horiz-adv-x="1380" d="M90 0v172h133v827h-133v172h549v-172h-133v-378l393 378h-113v172h519v-172h-115l-416 -399l434 -428h115v-172h-541v172h107l-383 385v-385h133v-172h-549z" />
<glyph unicode="L" horiz-adv-x="1130" d="M90 0v172h133v838h-133v161h547v-161h-133v-838h381v328h196v-500h-991z" />
<glyph unicode="M" horiz-adv-x="1789" d="M92 0v172h129v827h-129v172h512l303 -698l293 698h500v-172h-131v-827h131v-172h-526v172h126v754l-368 -875h-115l-375 875v-754h127v-172h-477z" />
<glyph unicode="N" horiz-adv-x="1501" d="M92 0v172h135v827h-135v172h461l555 -815v643h-143v172h471v-172h-133v-999h-283l-602 887v-715h143v-172h-469z" />
<glyph unicode="O" horiz-adv-x="1478" d="M84 582q0 174 81 313t230.5 218t343.5 79q195 0 343.5 -79t229.5 -218t81 -311q0 -174 -81 -312.5t-229.5 -216.5t-343.5 -78q-194 0 -343.5 78t-230.5 216.5t-81 310.5zM379 586q0 -180 97 -296t263 -116q164 0 261.5 117t97.5 297t-95.5 294.5t-259.5 114.5 q-168 0 -266 -113.5t-98 -297.5z" />
<glyph unicode="P" horiz-adv-x="1241" d="M90 0v172h133v827h-133v172h617q238 0 358.5 -83.5t120.5 -260.5q0 -360 -465 -360h-137v172h104q100 0 153.5 47t53.5 137q0 86 -49 131t-139 45h-203v-827h143v-172h-557z" />
<glyph unicode="Q" horiz-adv-x="1474" d="M84 582q0 174 81 313t230.5 218t343.5 79q195 0 343.5 -79t229.5 -218t81 -311q0 -154 -63.5 -281t-183.5 -209t-280 -106q37 -70 103.5 -107t154.5 -37q72 0 162 29v-176q-80 -31 -174 -31q-333 0 -489 322q-164 20 -286 102t-187.5 209t-65.5 283zM379 586 q0 -180 97 -296t263 -116q164 0 261.5 117t97.5 297t-95.5 294.5t-259.5 114.5q-168 0 -266 -113.5t-98 -297.5z" />
<glyph unicode="R" horiz-adv-x="1380" d="M90 0v172h133v827h-133v172h676q211 0 333 -81.5t122 -249.5q0 -250 -263 -310l220 -356h139v-174h-342l-287 498h-106v176h157q102 0 148.5 46t46.5 124q0 70 -45 112.5t-133 42.5h-252v-827h129v-172h-543z" />
<glyph unicode="S" horiz-adv-x="1159" d="M117 854q0 156 104.5 248t278.5 92q109 0 193.5 -34t140.5 -95v106h184v-337h-170q-29 82 -97.5 137t-191.5 55q-80 0 -124 -36t-44 -97q0 -70 54.5 -107.5t172.5 -60.5l64 -12q205 -39 299 -124t94 -249q0 -162 -106.5 -261t-288.5 -99q-106 0 -204.5 40.5t-153.5 110.5 v-131h-197v397h176q33 -113 123 -181.5t217 -68.5q82 0 128 38t46 108q0 80 -48 115.5t-173 60.5l-105 20q-184 37 -278 126.5t-94 238.5z" />
<glyph unicode="T" horiz-adv-x="1253" d="M51 748v423h1149v-423h-186v256h-246v-832h143v-172h-565v172h141v832h-247v-256h-189z" />
<glyph unicode="U" horiz-adv-x="1402" d="M61 999v172h547v-172h-137v-581q0 -123 67.5 -190.5t190.5 -67.5q129 0 199.5 67.5t70.5 190.5v581h-116v172h465v-172h-129v-577q0 -217 -133.5 -329.5t-374.5 -112.5q-258 0 -388 116.5t-130 329.5v573h-132z" />
<glyph unicode="V" horiz-adv-x="1363" d="M31 999v172h557v-172h-144l269 -692l262 692h-141v172h497v-172h-119l-413 -999h-207l-440 999h-121z" />
<glyph unicode="W" horiz-adv-x="1875" d="M39 999v172h496v-172h-125l190 -628l264 772h178l263 -772l194 628h-135v172h475v-172h-121l-319 -999h-191l-264 750l-262 -750h-193l-331 999h-119z" />
<glyph unicode="X" horiz-adv-x="1366" d="M59 0v170h121l326 422l-311 409h-119v170h530v-170h-108l196 -276l201 276h-111v170h498v-170h-119l-309 -397l332 -434h121v-170h-535v170h111l-215 303l-217 -303h112v-170h-504z" />
<glyph unicode="Y" horiz-adv-x="1347" d="M25 999v172h571v-172h-135l250 -366l241 366h-135v172h506v-172h-133l-369 -536v-291h148v-172h-576v172h146v289l-385 538h-129z" />
<glyph unicode="Z" horiz-adv-x="1200" d="M98 0v150l627 854h-420v-246h-186v413h977v-141l-631 -860h457v266h190v-436h-1014z" />
<glyph unicode="[" horiz-adv-x="776" d="M254 -211v1458h393v-137h-172v-1180h172v-141h-393z" />
<glyph unicode="\" horiz-adv-x="688" d="M33 1233h205l479 -1520h-205z" />
<glyph unicode="]" horiz-adv-x="776" d="M129 -70h174v1180h-174v137h391v-1458h-391v141z" />
<glyph unicode="^" horiz-adv-x="1097" d="M82 459l371 737h190l371 -737h-205l-260 555l-260 -555h-207z" />
<glyph unicode="_" horiz-adv-x="989" d="M12 -84h965v-111h-965v111z" />
<glyph unicode="`" horiz-adv-x="747" d="M205 1292h241l97 -331h-146z" />
<glyph unicode="a" horiz-adv-x="968" d="M70 217q0 131 91 192.5t232 61.5q102 0 197 -27v58q0 82 -43 124t-125 42q-123 0 -272 -72l-60 145q86 47 185.5 71t193.5 24q172 0 268.5 -85t96.5 -233v-364h108v-154h-315l-19 74q-119 -96 -266 -97q-123 0 -197.5 67t-74.5 173zM293 233q0 -53 33.5 -84.5t91.5 -31.5 q92 0 172 63v154q-65 22 -141 22h-7q-63 0 -106 -29.5t-43 -93.5z" />
<glyph unicode="b" horiz-adv-x="1085" d="M37 0v154h121v886h-119v152h369v-449q53 43 119.5 68t138.5 25q170 0 273 -113t103 -305q0 -133 -51 -232.5t-141 -152.5t-203 -53q-145 0 -252 81l-2 -61h-356zM408 217q72 -53 159 -53q97 0 157 64.5t60 177.5q0 115 -58 178t-155 63q-92 0 -163 -59v-371z" />
<glyph unicode="c" horiz-adv-x="944" d="M43 416q0 123 54.5 219t147.5 148.5t210 52.5q158 0 239 -93v74h174v-321h-159q-12 80 -63.5 125t-137.5 45q-102 0 -164.5 -65.5t-62.5 -174.5q0 -117 69.5 -188.5t184.5 -71.5q82 0 146 29.5t122 83.5l78 -148q-146 -151 -380 -151h-3q-133 0 -236.5 55t-161 154.5 t-57.5 226.5z" />
<glyph unicode="d" horiz-adv-x="1073" d="M45 410q0 129 50 225t137 148.5t196 52.5q147 0 254 -86v290h-133v152h381v-1038h110v-154h-344l-2 59q-115 -82 -258 -82q-113 0 -201 53.5t-139 151t-51 228.5zM303 401q0 -108 60.5 -172.5t156.5 -64.5q86 0 162 49v377q-78 59 -170 59q-94 0 -151.5 -64.5 t-57.5 -183.5z" />
<glyph unicode="e" horiz-adv-x="937" d="M43 408q0 125 56.5 222t156.5 151.5t225 54.5q188 0 297 -116t109 -304v-51h-604q16 -96 82.5 -148.5t166.5 -52.5q152 0 273 104l72 -149q-68 -66 -162 -104t-207 -38q-209 0 -337 116t-128 315zM283 481h370q0 90 -47 139.5t-129 49.5q-80 0 -131 -49.5t-63 -139.5z " />
<glyph unicode="f" horiz-adv-x="649" d="M53 0v154h127v508h-125v153h125v129q0 137 83 220t247 83q133 0 209 -58.5t88 -172.5l-191 -39q-4 57 -25.5 87t-66.5 30q-94 0 -94 -148v-131h217v-153h-217v-508h168v-154h-545z" />
<glyph unicode="g" horiz-adv-x="1079" d="M51 410q0 195 108.5 309.5t286.5 114.5q72 0 139.5 -26t116.5 -69l3 76h350v-153h-113v-642q0 -205 -117.5 -309t-320.5 -104q-160 0 -342 59l41 162q147 -47 264 -47q111 0 169 53t58 156v78q-104 -80 -245 -80q-178 0 -288 113.5t-110 308.5zM307 406 q0 -111 60.5 -174.5t156.5 -63.5q92 0 170 51l-2 375q-88 61 -176 61q-94 0 -151.5 -64.5t-57.5 -184.5z" />
<glyph unicode="h" horiz-adv-x="1091" d="M23 0v154h120v886h-118v152h368v-451q145 94 281 95q125 0 199.5 -77t74.5 -204v-401h121v-154h-473v154h104v360q0 70 -32.5 109t-92.5 39q-82 0 -182 -60v-448h103v-154h-473z" />
<glyph unicode="i" horiz-adv-x="563" d="M37 0v154h125v508h-123v153h371v-661h118v-154h-491zM111 1120q0 66 43 107t110 41q68 0 110 -41t42 -107v-6q0 -59 -41 -98q-43 -41 -111 -41q-67 0 -110 41t-43 104z" />
<glyph unicode="j" horiz-adv-x="573" d="M-4 -141h82q84 0 115.5 36.5t31.5 127.5v628h-157v164h407v-756q0 -199 -88 -293t-291 -94h-100v187zM164 1122q0 63 43 104.5t110 41.5q70 0 112 -40t42 -106t-42 -106.5t-112 -40.5q-67 0 -110 41t-43 106z" />
<glyph unicode="k" horiz-adv-x="1069" d="M39 0v154h123v886h-121v152h367v-758l297 228h-123v153h452v-153h-98l-283 -224l273 -284h114v-154h-268l-364 399v-245h112v-154h-481z" />
<glyph unicode="l" horiz-adv-x="552" d="M41 0v154h121v886h-119v152h365v-1038h112v-154h-479z" />
<glyph unicode="m" horiz-adv-x="1648" d="M37 0v154h125v508h-123v153h356l4 -76q145 96 283 97q80 0 140.5 -33t95.5 -92q82 61 160.5 93t164.5 32q123 0 198 -77t75 -204v-401h120v-154h-473v154h105v360q0 70 -33 109t-92 39q-94 0 -189 -66q2 -14 2 -43v-399h121v-154h-473v154h105v360q0 70 -34 109t-93 39 q-76 0 -172 -54v-454h110v-154h-483z" />
<glyph unicode="n" horiz-adv-x="1091" d="M37 0v154h125v508h-125v153h358l2 -76q150 96 287 97q125 0 199.5 -77t74.5 -204v-401h121v-154h-473v154h105v360q0 70 -33 109t-92 39q-82 0 -176 -56v-452h110v-154h-483z" />
<glyph unicode="o" horiz-adv-x="983" d="M43 408q0 127 55.5 224t156.5 150.5t234 53.5t235.5 -53.5t159 -149.5t56.5 -223q0 -129 -56.5 -227.5t-158.5 -152t-236 -53.5q-133 0 -234 53.5t-156.5 152t-55.5 225.5zM279 408q0 -112 57 -178q55 -65 147 -64h6h6q95 0 151 64q58 66 59 180q0 109 -58.5 173 t-157.5 64q-96 0 -153 -64.5t-57 -174.5z" />
<glyph unicode="p" horiz-adv-x="1073" d="M31 -180h119v842h-117v153h346l4 -70q123 90 266 91q172 0 275.5 -114t103.5 -306q0 -133 -51 -231.5t-141.5 -151.5t-200.5 -53q-72 0 -133.5 20t-102.5 53l-2 -233h142v-154h-508v154zM397 590l2 -377q72 -49 154 -49q98 0 158.5 63.5t60.5 180.5q0 111 -58.5 175 t-152.5 64q-39 0 -82 -14.5t-82 -42.5z" />
<glyph unicode="q" horiz-adv-x="1093" d="M45 406q0 131 51 228t142.5 149.5t205.5 52.5q143 0 261 -88l4 67h350v-153h-117v-844h119v-158h-508v158h141v241q-49 -39 -113.5 -60.5t-136.5 -21.5q-113 0 -203.5 53.5t-143 151t-52.5 224.5zM301 401q0 -112 61.5 -174.5t157.5 -62.5q90 0 174 55v369 q-86 61 -184 61q-94 0 -151.5 -66.5t-57.5 -181.5z" />
<glyph unicode="r" horiz-adv-x="823" d="M51 0v154h125v508h-125v153h373v-156q76 170 219 170h4q78 0 154 -38l-53 -205q-78 43 -158 43q-68 0 -116 -46t-48 -130l-2 -299h127v-154h-500z" />
<glyph unicode="s" horiz-adv-x="915" d="M102 588q0 115 83 181.5t221 66.5q63 0 123.5 -18.5t101.5 -47.5v47h166v-266h-152l-12 94q-31 25 -80 39t-94 14q-53 0 -89 -22.5t-36 -63.5q0 -37 27.5 -56t93.5 -34l92 -20q145 -35 216 -93.5t71 -179.5q0 -119 -87.5 -184t-216.5 -65q-80 0 -148.5 21.5t-113.5 59.5 v-61h-164v272h152l6 -82q39 -33 94.5 -52t112.5 -19q61 0 98 23.5t37 64.5q0 47 -33.5 68.5t-121.5 41.5l-89 19q-137 31 -197.5 87t-60.5 165z" />
<glyph unicode="t" horiz-adv-x="651" d="M35 662v153h112v268l250 54v-322h195v-153h-195v-383q0 -66 22.5 -93.5t78.5 -27.5h104v-158h-201q-251 0 -251 242v420h-115z" />
<glyph unicode="u" horiz-adv-x="1083" d="M23 662v153h362v-520q0 -66 32 -103.5t93 -37.5q92 0 180 65v443h-110v153h356v-661h123v-154h-352l-7 86q-141 -106 -288 -106q-135 0 -206 78.5t-71 201.5v402h-112z" />
<glyph unicode="v" horiz-adv-x="1048" d="M8 662v153h471v-153h-102l182 -429l180 429h-100v153h401v-153h-96l-309 -662h-217l-309 662h-101z" />
<glyph unicode="w" horiz-adv-x="1458" d="M10 662v153h400v-153h-88l151 -449l150 449h-88v153h397v-153h-92l157 -451l140 451h-88v153h397v-153h-88l-238 -662h-225l-168 471l-168 -471h-227l-238 662h-84z" />
<glyph unicode="x" horiz-adv-x="1046" d="M35 0v154h92l242 260l-226 248h-98v153h428v-153h-84l137 -158l138 158h-84v153h426v-153h-105l-223 -244l246 -264h92v-154h-434v154h96l-158 170l-151 -170h88v-154h-422z" />
<glyph unicode="y" horiz-adv-x="1069" d="M8 662v153h467v-153h-104l194 -433l180 433h-114v153h434v-153h-98l-326 -715q-53 -117 -90 -172.5t-97.5 -84t-164.5 -28.5h-99v184h82q78 0 116 22.5t69 96.5l37 88h-74l-303 609h-109z" />
<glyph unicode="z" horiz-adv-x="919" d="M78 0v133l469 535h-305v-158h-158v305h752v-137l-474 -535h330v179h158v-322h-772z" />
<glyph unicode="{" horiz-adv-x="823" d="M109 453v141q109 0 146.5 64.5t37.5 218.5q0 133 16.5 202.5t88 111.5t227.5 42h96v-143q-84 0 -125 -12.5t-55.5 -43t-14.5 -90.5q0 -170 -13 -249t-58 -117.5t-148 -55.5q100 -18 145.5 -55t58.5 -111.5t13 -234.5q0 -70 13.5 -102.5t54.5 -47t129 -14.5v-141h-96 q-158 0 -228.5 42t-87 112.5t-16.5 209.5q0 147 -38 210t-146 63z" />
<glyph unicode="|" horiz-adv-x="403" d="M100 -287v1520h203v-1520h-203z" />
<glyph unicode="}" horiz-adv-x="823" d="M137 -43q88 0 128 14.5t53.5 46t13.5 101.5q0 162 13 236.5t58.5 111.5t147.5 55q-104 16 -149.5 55t-58.5 118t-13 249q0 59 -13.5 90t-54.5 43.5t-125 12.5v143h94q156 0 227.5 -42t88 -111.5t16.5 -202.5q0 -152 38 -217.5t147 -65.5v-141q-109 0 -147 -64.5 t-38 -216.5q0 -135 -16.5 -203.5t-88 -110.5t-227.5 -42h-94v141z" />
<glyph unicode="~" horiz-adv-x="1136" d="M154 463q8 119 69.5 179t153.5 60q49 0 96 -15t102 -42q61 -27 95.5 -38t72.5 -11q84 0 93 88h147q-8 -121 -69.5 -181.5t-155.5 -60.5q-51 0 -95.5 14.5t-109.5 45.5q-57 25 -91 37t-69 12q-39 0 -63.5 -22.5t-28.5 -65.5h-147z" />
<glyph horiz-adv-x="894" />
<glyph unicode="&#xa1;" horiz-adv-x="389" d="M76 795q0 53 38 89t97 36q61 0 99 -36t38 -89q0 -55 -38 -91t-99 -36q-59 0 -97 35.5t-38 91.5zM94 49l43 516h139l46 -516v-364h-228v364z" />
<glyph unicode="&#xa2;" horiz-adv-x="944" d="M43 416q0 121 52 216t143.5 148.5t205.5 55.5v155h115v-168q86 -25 135 -80v74h174v-321h-159q-10 68 -49 110.5t-101 55.5v-496q74 4 132.5 32.5t111.5 80.5l78 -148q-125 -129 -322 -149v-160h-115v160q-180 16 -290.5 136t-110.5 298zM281 426q0 -92 44 -156.5 t119 -89.5v477q-76 -18 -119.5 -79.5t-43.5 -151.5z" />
<glyph unicode="&#xa3;" horiz-adv-x="1124" d="M66 180q0 86 60 145.5t161 59.5q47 0 90 -14.5t88 -40.5q-6 55 -29.5 105t-62.5 110h-238v123h158q-57 104 -57 198q0 156 102 242t285 86q199 0 295 -87t96 -245h-209q0 82 -38 128t-116 46q-76 0 -116.5 -46t-40.5 -126q0 -86 55 -196h373v-123h-310 q25 -57 39.5 -105.5t14.5 -101.5q0 -68 -23 -129q68 -39 129 -39q133 0 133 149h158v-18q0 -150 -67.5 -234.5t-198.5 -84.5q-125 0 -240 96q-104 -98 -254 -98q-109 0 -173 55t-64 145zM199 176q0 -41 28.5 -65.5t71.5 -24.5q49 0 86 25.5t59 70.5q-43 39 -76.5 59.5 t-70.5 20.5q-45 0 -71.5 -23.5t-26.5 -62.5z" />
<glyph unicode="&#xa4;" horiz-adv-x="1286" d="M92 152l144 133q-104 137 -105 317q0 178 105 316l-144 133l101 102l135 -147q135 102 315 102t315 -102l134 147l102 -102l-145 -133q104 -137 104 -316q0 -182 -104 -315l145 -135l-102 -103l-134 148q-135 -102 -315 -103q-180 0 -315 101l-135 -146zM334 602 q0 -88 41 -160.5t111.5 -113.5t156.5 -41t156.5 41t111.5 113.5t41 160.5t-41 160t-111.5 112.5t-156.5 40.5t-156.5 -40.5t-111.5 -112.5t-41 -160z" />
<glyph unicode="&#xa5;" horiz-adv-x="1347" d="M23 999v172h571v-172h-135l250 -366l241 366h-135v172h506v-172h-133l-352 -512h262v-120h-279v-195h148v-172h-576v172h146v195h-291v120h272l-366 512h-129z" />
<glyph unicode="&#xa6;" horiz-adv-x="403" d="M100 -287v615h203v-615h-203zM100 618v615h203v-615h-203z" />
<glyph unicode="&#xa7;" horiz-adv-x="925" d="M121 621q0 55 32.5 100t84.5 70q-80 72 -80 196q0 119 87 187.5t228 68.5q137 0 211 -52t74 -134q0 -47 -36 -76t-99 -29q-2 90 -38 150.5t-120 60.5q-76 0 -120 -42t-44 -115q0 -53 22.5 -86t60.5 -55.5t124 -63.5q176 -88 247.5 -157t73.5 -167q0 -59 -29.5 -113.5 t-76.5 -82.5q57 -70 57 -172q0 -131 -82 -208t-237 -77q-162 0 -236.5 57.5t-74.5 143.5q0 57 34.5 85.5t91.5 28.5q2 -109 54.5 -173t148.5 -64q84 0 131 45t47 121q0 49 -20.5 81.5t-77.5 69.5t-184 100q-137 68 -195.5 136.5t-58.5 165.5zM252 655q0 -47 20.5 -79.5 t67.5 -63.5t143 -78q111 -51 172 -96q33 37 33 90q0 59 -46 107.5t-167 109.5q-14 8 -78.5 39t-101.5 57q-43 -31 -43 -86z" />
<glyph unicode="&#xa8;" horiz-adv-x="1146" d="M204 1094q0 59 39 95t99 36q57 0 96 -36t39 -95q0 -61 -39 -96t-96 -35q-60 0 -99 34.5t-39 96.5zM669 1094q0 59 39 95t96 36q59 0 98.5 -36t39.5 -95q0 -61 -39 -96t-99 -35q-57 0 -96 34.5t-39 96.5z" />
<glyph unicode="&#xa9;" horiz-adv-x="1533" d="M121 598q0 180 83 323.5t230.5 223.5t331.5 80t331.5 -80t230.5 -223.5t83 -323.5q0 -178 -83 -320.5t-230.5 -223.5t-331.5 -81t-331.5 81t-230.5 223.5t-83 320.5zM262 596q0 -147 64.5 -264t179.5 -182.5t260 -65.5t260 65.5t179.5 182.5t64.5 264q0 150 -64.5 268.5 t-179.5 185t-260 66.5t-260 -66.5t-179.5 -185.5t-64.5 -268zM434 598q0 100 44 178t121 120t169 42q59 0 110.5 -21.5t77.5 -58.5v66h109v-230h-104q-14 66 -62.5 104t-116.5 38q-90 0 -151.5 -64.5t-61.5 -171.5q0 -106 59.5 -174t151.5 -68q63 0 120.5 30t92.5 79l82 -61 q-43 -66 -126 -108t-171 -42q-98 0 -177 44t-123 122t-44 176z" />
<glyph unicode="&#xaa;" horiz-adv-x="819" d="M43 698q0 104 78 156.5t198 52.5q70 0 150 -14v41q0 117 -137 117q-109 0 -221 -62l-56 123q133 80 307 80q141 0 226.5 -64.5t85.5 -181.5v-289h98v-137h-264l-16 53q-92 -70 -220 -69q-100 0 -164.5 54t-64.5 140zM233 711q0 -41 27 -65.5t72 -24.5q76 0 137 49v125 q-53 14 -111 14q-125 0 -125 -98z" />
<glyph unicode="&#xab;" horiz-adv-x="1130" d="M106 575l295 437h189l-228 -434l228 -433h-189zM545 575l295 437h186l-225 -434l225 -433h-186z" />
<glyph unicode="&#xac;" horiz-adv-x="1122" d="M154 504v147h817v-395h-144v248h-673z" />
<glyph unicode="&#xad;" horiz-adv-x="757" d="M106 403v160h545v-160h-545z" />
<glyph unicode="&#xae;" horiz-adv-x="1533" d="M125 598q0 176 79 318.5t224 223.5t334 81q188 0 333.5 -82t225.5 -223.5t80 -317.5t-80 -317.5t-225.5 -222.5t-333.5 -81q-189 0 -333 81t-224 222.5t-80 317.5zM264 596q0 -143 61.5 -259t175 -182.5t261.5 -66.5q145 0 259 66.5t176.5 182.5t62.5 259 q0 145 -62.5 262t-175.5 184.5t-260 67.5t-260 -67.5t-175.5 -184.5t-62.5 -262zM477 872v68h320q100 0 158.5 -47t58.5 -125q0 -61 -40 -106.5t-110 -59.5l133 -242h93v-67h-160l-162 299h-100v-232h86v-67h-275v67h88v512h-90zM668 662h127q53 0 85.5 28.5t32.5 77.5 q0 47 -30.5 75.5t-83.5 28.5h-131v-210z" />
<glyph unicode="&#xaf;" horiz-adv-x="907" d="M205 963v137h495v-137h-495z" />
<glyph unicode="&#xb0;" horiz-adv-x="499" d="M6 1018q0 98 67.5 167.5t176.5 69.5t176.5 -69.5t67.5 -167.5q0 -100 -68 -171t-176 -71q-109 0 -176.5 71t-67.5 171zM98 1018q0 -68 42 -114t112 -46q67 0 108 46t41 114q0 63 -42 108t-109 45q-68 0 -110 -45t-42 -108z" />
<glyph unicode="&#xb1;" horiz-adv-x="1196" d="M154 86v143h888v-143h-888zM154 666v143h366v334h158v-334h364v-143h-364v-342h-158v342h-366z" />
<glyph unicode="&#xb2;" horiz-adv-x="675" d="M47 1116q0 113 76 186.5t213 73.5q125 0 196.5 -61.5t71.5 -161.5q0 -90 -53 -160.5t-182 -177.5l-90 -76h217v103h122v-232h-565l2 109l203 176q92 82 131 133t39 109q0 47 -25.5 75.5t-78.5 28.5q-57 0 -89 -39t-32 -102q0 -31 10 -82h-152q-14 57 -14 98z" />
<glyph unicode="&#xb3;" horiz-adv-x="700" d="M41 786l143 66q20 -63 65.5 -96t106.5 -33q53 0 85 26.5t32 75.5q0 55 -42 81t-130 26v110q156 0 156 101q0 45 -30 72.5t-81 27.5q-55 0 -92 -31.5t-55 -87.5l-150 58q27 94 108 144t195 50q133 0 208 -58t75 -155q0 -57 -33 -101t-92 -67q72 -22 110.5 -71.5 t38.5 -120.5q0 -102 -82.5 -160.5t-218.5 -58.5q-127 0 -208.5 52t-108.5 150z" />
<glyph unicode="&#xb4;" horiz-adv-x="747" d="M205 961l96 331h242l-193 -331h-145z" />
<glyph unicode="&#xb5;" horiz-adv-x="1095" d="M37 662v153h364v-520q0 -66 32 -103.5t95 -37.5q88 0 179 69v439h-111v153h356v-661h123v-154h-352l-4 72q-109 -92 -215 -92q-57 0 -103 26v-280h-249v936h-115z" />
<glyph unicode="&#xb6;" horiz-adv-x="1161" d="M90 813q0 154 106.5 247t309.5 93h598v-162h-166v-831h164v-164h-645v164h248v315h-252q-172 0 -267.5 93.5t-95.5 244.5zM508 631l197 2v358h-197v-360z" />
<glyph unicode="&#xb7;" horiz-adv-x="501" d="M123 553q0 51 37 85t90 34q55 0 92 -34t37 -85t-37 -86t-92 -35q-53 0 -90 35t-37 86z" />
<glyph unicode="&#xb8;" horiz-adv-x="763" d="M205 -276q78 -25 114 -25q35 0 55.5 14.5t20.5 44.5q0 61 -119 68l70 174h94l-33 -117q74 -10 112 -49t38 -92q0 -68 -49 -102.5t-123 -34.5q-92 0 -180 47v72z" />
<glyph unicode="&#xb9;" horiz-adv-x="509" d="M41 610v119h119v494l-113 -19l-4 111l307 39v-625h119v-119h-428z" />
<glyph unicode="&#xba;" horiz-adv-x="876" d="M61 850q0 156 104.5 249t272.5 93t272.5 -93t104.5 -249t-104.5 -251t-272.5 -95t-272.5 95t-104.5 251zM272 850q0 -94 46.5 -148.5t119.5 -56.5q74 0 120 55.5t46 149.5q0 92 -46 147.5t-120 55.5t-120 -55.5t-46 -147.5z" />
<glyph unicode="&#xbb;" horiz-adv-x="1093" d="M121 145l227 437l-227 430h186l295 -430l-295 -437h-186zM557 145l227 437l-227 430h188l295 -430l-295 -437h-188z" />
<glyph unicode="&#xbc;" horiz-adv-x="1591" d="M100 450v119h119v494l-113 -19l-4 111l307 39v-625h119v-119h-428zM336 -2l772 1180h129l-766 -1180h-135zM827 293l369 451h170v-434h125v-105h-125v-88h108v-117h-395v117h113v88h-351zM981 310h211v260z" />
<glyph unicode="&#xbd;" horiz-adv-x="1640" d="M100 448v119h119v494l-113 -19l-4 111l307 39v-625h119v-119h-428zM328 -2l772 1180h129l-766 -1180h-135zM969 506q0 113 76 186.5t213 73.5q125 0 196.5 -61.5t71.5 -161.5q0 -90 -53 -160.5t-182 -177.5l-90 -76h217v103h122v-232h-565l2 109l203 176q92 82 131 133 t39 109q0 47 -25.5 75.5t-78.5 28.5q-57 0 -89 -39t-32 -102q0 -31 10 -82h-152q-14 57 -14 98z" />
<glyph unicode="&#xbe;" horiz-adv-x="1718" d="M100 622l143 66q20 -63 65.5 -96t106.5 -33q53 0 85 26.5t32 75.5q0 55 -42 81t-130 26v110q156 0 156 101q0 45 -30 72.5t-81 27.5q-55 0 -92 -31.5t-55 -87.5l-150 58q27 94 108 144t195 50q133 0 208 -58t75 -155q0 -57 -33 -101t-92 -67q72 -22 110.5 -71.5 t38.5 -120.5q0 -102 -82.5 -160.5t-218.5 -58.5q-127 0 -208.5 52t-108.5 150zM476 -2l772 1180h129l-766 -1180h-135zM954 293l369 451h170v-434h125v-105h-125v-88h108v-117h-395v117h113v88h-351zM1108 310h211v260z" />
<glyph unicode="&#xbf;" horiz-adv-x="937" d="M100 -23q0 90 43 156t138 148q90 76 118.5 123t28.5 133v24h219v-24q0 -102 -37 -165t-127 -143q-72 -63 -99.5 -109t-27.5 -110q0 -74 43 -113.5t117 -39.5q86 0 131 46t49 136h232q-4 -186 -123 -279.5t-305 -93.5t-293 85t-107 226zM401 791q0 53 39 88.5t99 35.5 q59 0 97 -35.5t38 -88.5q0 -55 -38 -91t-97 -36t-98.5 35.5t-39.5 91.5z" />
<glyph unicode="&#xc0;" d="M49 0v172h131l305 827h-120v172h722v-172h-120l311 -827h125v-172h-553v172h139l-86 256h-383l-86 -256h129v-172h-514zM459 1648h241l97 -331h-146zM571 592h283l-133 405h-10z" />
<glyph unicode="&#xc1;" d="M49 0v172h131l305 827h-120v172h722v-172h-120l311 -827h125v-172h-553v172h139l-86 256h-383l-86 -256h129v-172h-514zM571 592h283l-133 405h-10zM655 1317l97 331h241l-192 -331h-146z" />
<glyph unicode="&#xc2;" d="M49 0v172h131l305 827h-120v172h722v-172h-120l311 -827h125v-172h-553v172h139l-86 256h-383l-86 -256h129v-172h-514zM426 1292l174 344h256l172 -344h-164l-137 242l-137 -242h-164zM571 592h283l-133 405h-10z" />
<glyph unicode="&#xc3;" d="M49 0v172h131l305 827h-120v172h722v-172h-120l311 -827h125v-172h-553v172h139l-86 256h-383l-86 -256h129v-172h-514zM385 1329q10 131 65.5 192.5t139.5 61.5q37 0 72.5 -12.5t95.5 -36.5q86 -39 119 -39q68 0 81 80h111q-8 -125 -61.5 -190.5t-139.5 -65.5 q-39 0 -80 13t-96 38q-10 4 -49 20.5t-68 16.5q-68 0 -75 -78h-115zM571 592h283l-133 405h-10z" />
<glyph unicode="&#xc4;" d="M49 0v172h131l305 827h-120v172h722v-172h-120l311 -827h125v-172h-553v172h139l-86 256h-383l-86 -256h129v-172h-514zM358 1450q0 59 39 95t99 36q57 0 96 -36t39 -95q0 -61 -39 -96t-96 -35q-60 0 -99 34.5t-39 96.5zM571 592h283l-133 405h-10zM823 1450q0 59 39 95 t96 36q59 0 98.5 -36t39.5 -95q0 -61 -39 -96t-99 -35q-57 0 -96 34.5t-39 96.5z" />
<glyph unicode="&#xc5;" d="M49 0v172h131l305 827h-120v172h722v-172h-120l311 -827h125v-172h-553v172h139l-86 256h-383l-86 -256h129v-172h-514zM547 1439q0 80 47 126t133 46q84 0 132 -46t48 -126q0 -76 -47 -124t-129 -48q-86 0 -135 47.5t-49 124.5zM571 592h283l-133 405h-10zM635 1439 q0 -41 24.5 -65.5t67.5 -24.5t66.5 24.5t23.5 65.5q0 43 -23.5 68t-66.5 25t-67.5 -26t-24.5 -67z" />
<glyph unicode="&#xc6;" horiz-adv-x="2007" d="M33 0v172h135l479 827h-117v172h1303l25 -395h-185l-18 223h-484l21 -319h254l-8 125h139l31 -418h-142l-10 127h-258l21 -340h501l-16 236h182l27 -410h-1106v172h131l-14 244h-361l-129 -244h121v-172h-522zM641 575h277l-25 424h-16z" />
<glyph unicode="&#xc7;" horiz-adv-x="1427" d="M84 586q0 180 79 317t220 213t324 76q129 0 229 -41t162 -117v137h190v-393l-164 -2q-59 113 -146 167t-212 54q-180 0 -286.5 -113.5t-106.5 -293.5q0 -125 48 -219.5t133 -145.5t194 -51q131 0 222 67.5t130 204.5l217 -84q-53 -178 -195.5 -276t-355.5 -109l-27 -94 q74 -10 112 -49t38 -92q0 -68 -49 -102.5t-123 -34.5q-92 0 -180 47v72q78 -25 114 -25q35 0 55.5 14.5t20.5 44.5q0 61 -119 68l62 154q-172 12 -305.5 91t-207 211t-73.5 304z" />
<glyph unicode="&#xc8;" horiz-adv-x="1282" d="M90 0v172h133v827h-133v172h1077v-383h-182v211h-479v-313h246v123h141v-416h-139v127h-248v-346h487v225h185v-399h-1088zM412 1648h241l97 -331h-146z" />
<glyph unicode="&#xc9;" horiz-adv-x="1282" d="M90 0v172h133v827h-133v172h1077v-383h-182v211h-479v-313h246v123h141v-416h-139v127h-248v-346h487v225h185v-399h-1088zM608 1317l97 331h241l-192 -331h-146z" />
<glyph unicode="&#xca;" horiz-adv-x="1282" d="M90 0v172h133v827h-133v172h1077v-383h-182v211h-479v-313h246v123h141v-416h-139v127h-248v-346h487v225h185v-399h-1088zM379 1292l174 344h256l172 -344h-164l-137 242l-137 -242h-164z" />
<glyph unicode="&#xcb;" horiz-adv-x="1282" d="M90 0v172h133v827h-133v172h1077v-383h-182v211h-479v-313h246v123h141v-416h-139v127h-248v-346h487v225h185v-399h-1088zM311 1450q0 59 39 95t99 36q57 0 96 -36t39 -95q0 -61 -39 -96t-96 -35q-60 0 -99 34.5t-39 96.5zM776 1450q0 59 39 95t96 36q59 0 98.5 -36 t39.5 -95q0 -61 -39 -96t-99 -35q-57 0 -96 34.5t-39 96.5z" />
<glyph unicode="&#xcc;" horiz-adv-x="753" d="M102 0v172h134v827h-134v172h549v-172h-135v-827h135v-172h-549zM109 1648h241l97 -331h-146z" />
<glyph unicode="&#xcd;" horiz-adv-x="753" d="M102 0v172h134v827h-134v172h549v-172h-135v-827h135v-172h-549zM305 1317l97 331h241l-192 -331h-146z" />
<glyph unicode="&#xce;" horiz-adv-x="753" d="M76 1292l174 344h256l172 -344h-164l-137 242l-137 -242h-164zM102 0v172h134v827h-134v172h549v-172h-135v-827h135v-172h-549z" />
<glyph unicode="&#xcf;" horiz-adv-x="753" d="M8 1450q0 59 39 95t99 36q57 0 96 -36t39 -95q0 -61 -39 -96t-96 -35q-60 0 -99 34.5t-39 96.5zM102 0v172h134v827h-134v172h549v-172h-135v-827h135v-172h-549zM473 1450q0 59 39 95t96 36q59 0 98.5 -36t39.5 -95q0 -61 -39 -96t-99 -35q-57 0 -96 34.5t-39 96.5z" />
<glyph unicode="&#xd0;" horiz-adv-x="1484" d="M92 0v172h133v344h-133v160h133v323h-133v172h674q199 0 337 -77.5t207.5 -209.5t69.5 -290q0 -270 -157.5 -432t-454.5 -162h-676zM506 172h217q186 0 275 111.5t89 308.5q0 184 -90 295.5t-272 111.5h-219v-323h131v-160h-131v-344z" />
<glyph unicode="&#xd1;" horiz-adv-x="1501" d="M92 0v172h135v827h-135v172h461l555 -815v643h-143v172h471v-172h-133v-999h-283l-602 887v-715h143v-172h-469zM428 1329q10 131 65.5 192.5t139.5 61.5q37 0 72.5 -12.5t95.5 -36.5q86 -39 119 -39q68 0 81 80h111q-8 -125 -61.5 -190.5t-139.5 -65.5q-39 0 -80 13 t-96 38q-10 4 -49 20.5t-68 16.5q-68 0 -75 -78h-115z" />
<glyph unicode="&#xd2;" horiz-adv-x="1478" d="M84 582q0 174 81 313t230.5 218t343.5 79q195 0 343.5 -79t229.5 -218t81 -311q0 -174 -81 -312.5t-229.5 -216.5t-343.5 -78q-194 0 -343.5 78t-230.5 216.5t-81 310.5zM379 586q0 -180 97 -296t263 -116q164 0 261.5 117t97.5 297t-95.5 294.5t-259.5 114.5 q-168 0 -266 -113.5t-98 -297.5zM469 1648h241l97 -331h-146z" />
<glyph unicode="&#xd3;" horiz-adv-x="1478" d="M84 582q0 174 81 313t230.5 218t343.5 79q195 0 343.5 -79t229.5 -218t81 -311q0 -174 -81 -312.5t-229.5 -216.5t-343.5 -78q-194 0 -343.5 78t-230.5 216.5t-81 310.5zM379 586q0 -180 97 -296t263 -116q164 0 261.5 117t97.5 297t-95.5 294.5t-259.5 114.5 q-168 0 -266 -113.5t-98 -297.5zM665 1317l97 331h241l-192 -331h-146z" />
<glyph unicode="&#xd4;" horiz-adv-x="1478" d="M84 582q0 174 81 313t230.5 218t343.5 79q195 0 343.5 -79t229.5 -218t81 -311q0 -174 -81 -312.5t-229.5 -216.5t-343.5 -78q-194 0 -343.5 78t-230.5 216.5t-81 310.5zM379 586q0 -180 97 -296t263 -116q164 0 261.5 117t97.5 297t-95.5 294.5t-259.5 114.5 q-168 0 -266 -113.5t-98 -297.5zM436 1292l174 344h256l172 -344h-164l-137 242l-137 -242h-164z" />
<glyph unicode="&#xd5;" horiz-adv-x="1478" d="M84 582q0 174 81 313t230.5 218t343.5 79q195 0 343.5 -79t229.5 -218t81 -311q0 -174 -81 -312.5t-229.5 -216.5t-343.5 -78q-194 0 -343.5 78t-230.5 216.5t-81 310.5zM379 586q0 -180 97 -296t263 -116q164 0 261.5 117t97.5 297t-95.5 294.5t-259.5 114.5 q-168 0 -266 -113.5t-98 -297.5zM395 1329q10 131 65.5 192.5t139.5 61.5q37 0 72.5 -12.5t95.5 -36.5q86 -39 119 -39q68 0 81 80h111q-8 -125 -61.5 -190.5t-139.5 -65.5q-39 0 -80 13t-96 38q-10 4 -49 20.5t-68 16.5q-68 0 -75 -78h-115z" />
<glyph unicode="&#xd6;" horiz-adv-x="1478" d="M84 582q0 174 81 313t230.5 218t343.5 79q195 0 343.5 -79t229.5 -218t81 -311q0 -174 -81 -312.5t-229.5 -216.5t-343.5 -78q-194 0 -343.5 78t-230.5 216.5t-81 310.5zM368 1450q0 59 39 95t99 36q57 0 96 -36t39 -95q0 -61 -39 -96t-96 -35q-60 0 -99 34.5t-39 96.5z M379 586q0 -180 97 -296t263 -116q164 0 261.5 117t97.5 297t-95.5 294.5t-259.5 114.5q-168 0 -266 -113.5t-98 -297.5zM833 1450q0 59 39 95t96 36q59 0 98.5 -36t39.5 -95q0 -61 -39 -96t-99 -35q-57 0 -96 34.5t-39 96.5z" />
<glyph unicode="&#xd7;" horiz-adv-x="1040" d="M70 229l346 346l-340 340l104 105l340 -338l344 342l107 -104l-344 -345l338 -339l-105 -103l-338 338l-348 -346z" />
<glyph unicode="&#xd8;" horiz-adv-x="1394" d="M43 580q0 174 81 313t230.5 218t343.5 79q188 0 334 -76l98 127l113 -78l-96 -125q98 -82 151.5 -199.5t53.5 -256.5q0 -174 -81 -312.5t-229.5 -216.5t-343.5 -78q-172 0 -319 66l-103 -133l-112 78l98 127q-104 82 -161.5 202.5t-57.5 264.5zM338 584q0 -162 78 -271 l481 625q-82 57 -199 57q-166 0 -263 -114.5t-97 -296.5zM516 219q78 -47 182 -47q164 0 261.5 117t97.5 297q0 147 -64 252z" />
<glyph unicode="&#xd9;" horiz-adv-x="1402" d="M61 999v172h547v-172h-137v-581q0 -123 67.5 -190.5t190.5 -67.5q129 0 199.5 67.5t70.5 190.5v581h-116v172h465v-172h-129v-577q0 -217 -133.5 -329.5t-374.5 -112.5q-258 0 -388 116.5t-130 329.5v573h-132zM459 1648h241l97 -331h-146z" />
<glyph unicode="&#xda;" horiz-adv-x="1402" d="M61 999v172h547v-172h-137v-581q0 -123 67.5 -190.5t190.5 -67.5q129 0 199.5 67.5t70.5 190.5v581h-116v172h465v-172h-129v-577q0 -217 -133.5 -329.5t-374.5 -112.5q-258 0 -388 116.5t-130 329.5v573h-132zM655 1317l97 331h241l-192 -331h-146z" />
<glyph unicode="&#xdb;" horiz-adv-x="1402" d="M61 999v172h547v-172h-137v-581q0 -123 67.5 -190.5t190.5 -67.5q129 0 199.5 67.5t70.5 190.5v581h-116v172h465v-172h-129v-577q0 -217 -133.5 -329.5t-374.5 -112.5q-258 0 -388 116.5t-130 329.5v573h-132zM426 1292l174 344h256l172 -344h-164l-137 242l-137 -242 h-164z" />
<glyph unicode="&#xdc;" horiz-adv-x="1402" d="M61 999v172h547v-172h-137v-581q0 -123 67.5 -190.5t190.5 -67.5q129 0 199.5 67.5t70.5 190.5v581h-116v172h465v-172h-129v-577q0 -217 -133.5 -329.5t-374.5 -112.5q-258 0 -388 116.5t-130 329.5v573h-132zM358 1450q0 59 39 95t99 36q57 0 96 -36t39 -95 q0 -61 -39 -96t-96 -35q-60 0 -99 34.5t-39 96.5zM823 1450q0 59 39 95t96 36q59 0 98.5 -36t39.5 -95q0 -61 -39 -96t-99 -35q-57 0 -96 34.5t-39 96.5z" />
<glyph unicode="&#xdd;" horiz-adv-x="1347" d="M25 999v172h571v-172h-135l250 -366l241 366h-135v172h506v-172h-133l-369 -536v-291h148v-172h-576v172h146v289l-385 538h-129zM635 1317l97 331h241l-192 -331h-146z" />
<glyph unicode="&#xde;" horiz-adv-x="1226" d="M102 0v172h134v827h-134v172h557v-172h-143v-110h225q217 0 323.5 -69.5t106.5 -213.5q0 -147 -104 -215.5t-322 -68.5h-157v118h114q90 0 138.5 41t48.5 125q0 76 -49 116t-140 40h-184v-590h143v-172h-557z" />
<glyph unicode="&#xdf;" horiz-adv-x="1155" d="M31 0v156h133v628q0 205 115.5 316.5t326.5 111.5q188 0 290.5 -81.5t102.5 -223.5q0 -96 -54 -165.5t-152 -96.5q145 -16 233 -92t88 -215q0 -170 -130 -254t-366 -84v156q236 0 236 196q0 96 -62.5 144.5t-177.5 48.5h-41v145h41q78 2 122 50t44 126q0 76 -44 120 t-124 44q-94 0 -145 -61.5t-51 -167.5v-645h104v-156h-489z" />
<glyph unicode="&#xe0;" horiz-adv-x="968" d="M70 217q0 131 91 192.5t232 61.5q102 0 197 -27v58q0 82 -43 124t-125 42q-123 0 -272 -72l-60 145q86 47 185.5 71t193.5 24q172 0 268.5 -85t96.5 -233v-364h108v-154h-315l-19 74q-119 -96 -266 -97q-123 0 -197.5 67t-74.5 173zM205 1292h241l97 -331h-146zM293 233 q0 -53 33.5 -84.5t91.5 -31.5q92 0 172 63v154q-68 23 -148 22q-63 0 -106 -29.5t-43 -93.5z" />
<glyph unicode="&#xe1;" horiz-adv-x="968" d="M70 217q0 131 91 192.5t232 61.5q102 0 197 -27v58q0 82 -43 124t-125 42q-123 0 -272 -72l-60 145q86 47 185.5 71t193.5 24q172 0 268.5 -85t96.5 -233v-364h108v-154h-315l-19 74q-119 -96 -266 -97q-123 0 -197.5 67t-74.5 173zM293 233q0 -53 33.5 -84.5t91.5 -31.5 q92 0 172 63v154q-68 23 -148 22q-63 0 -106 -29.5t-43 -93.5zM401 961l97 331h241l-192 -331h-146z" />
<glyph unicode="&#xe2;" horiz-adv-x="968" d="M70 217q0 131 91 192.5t232 61.5q102 0 197 -27v58q0 82 -43 124t-125 42q-123 0 -272 -72l-60 145q86 47 185.5 71t193.5 24q172 0 268.5 -85t96.5 -233v-364h108v-154h-315l-19 74q-119 -96 -266 -97q-123 0 -197.5 67t-74.5 173zM172 936l174 344h256l172 -344h-164 l-137 242l-137 -242h-164zM293 233q0 -53 33.5 -84.5t91.5 -31.5q92 0 172 63v154q-68 23 -148 22q-63 0 -106 -29.5t-43 -93.5z" />
<glyph unicode="&#xe3;" horiz-adv-x="968" d="M70 217q0 131 91 192.5t232 61.5q102 0 197 -27v58q0 82 -43 124t-125 42q-123 0 -272 -72l-60 145q86 47 185.5 71t193.5 24q172 0 268.5 -85t96.5 -233v-364h108v-154h-315l-19 74q-119 -96 -266 -97q-123 0 -197.5 67t-74.5 173zM131 973q10 131 65.5 192.5 t139.5 61.5q37 0 72.5 -12.5t95.5 -36.5q86 -39 119 -39q68 0 81 80h111q-8 -125 -61.5 -190.5t-139.5 -65.5q-39 0 -80 13t-96 38q-10 4 -49 20.5t-68 16.5q-68 0 -75 -78h-115zM293 233q0 -53 33.5 -84.5t91.5 -31.5q92 0 172 63v154q-68 23 -148 22q-63 0 -106 -29.5 t-43 -93.5z" />
<glyph unicode="&#xe4;" horiz-adv-x="968" d="M70 217q0 131 91 192.5t232 61.5q102 0 197 -27v58q0 82 -43 124t-125 42q-123 0 -272 -72l-60 145q86 47 185.5 71t193.5 24q172 0 268.5 -85t96.5 -233v-364h108v-154h-315l-19 74q-119 -96 -266 -97q-123 0 -197.5 67t-74.5 173zM104 1094q0 59 39 95t99 36 q57 0 96 -36t39 -95q0 -61 -39 -96t-96 -35q-60 0 -99 34.5t-39 96.5zM293 233q0 -53 33.5 -84.5t91.5 -31.5q92 0 172 63v154q-68 23 -148 22q-63 0 -106 -29.5t-43 -93.5zM569 1094q0 59 39 95t96 36q59 0 98.5 -36t39.5 -95q0 -61 -39 -96t-99 -35q-57 0 -96 34.5 t-39 96.5z" />
<glyph unicode="&#xe5;" horiz-adv-x="968" d="M70 217q0 131 91 192.5t232 61.5q102 0 197 -27v58q0 82 -43 124t-125 42q-123 0 -272 -72l-60 145q86 47 185.5 71t193.5 24q172 0 268.5 -85t96.5 -233v-364h108v-154h-315l-19 74q-119 -96 -266 -97q-123 0 -197.5 67t-74.5 173zM293 233q0 -53 33.5 -84.5t91.5 -31.5 q92 0 172 63v154q-68 23 -148 22q-63 0 -106 -29.5t-43 -93.5zM293 1083q0 80 47 126t133 46q84 0 132 -46t48 -126q0 -76 -47 -124t-129 -48q-86 0 -135 47.5t-49 124.5zM381 1083q0 -41 24.5 -65.5t67.5 -24.5t66.5 24.5t23.5 65.5q0 43 -23.5 68t-66.5 25t-67.5 -26 t-24.5 -67z" />
<glyph unicode="&#xe6;" horiz-adv-x="1486" d="M70 217q0 131 99 191.5t253 60.5h168v37q0 80 -44 121t-124 41q-123 0 -272 -72l-60 145q88 47 184.5 71t188.5 24q186 0 282 -101q117 100 293 101q184 0 291 -116t107 -304v-51h-600q16 -94 81.5 -147.5t163.5 -53.5q78 0 147.5 27.5t125.5 76.5l73 -149 q-68 -66 -162 -104t-206 -38q-225 0 -354 136q-154 -135 -340 -136q-136 0 -215.5 64.5t-79.5 175.5zM293 233q0 -53 37 -84.5t100 -31.5q55 0 105.5 20.5t103.5 65.5q-37 76 -43 149h-133q-74 0 -122 -28.5t-48 -90.5zM834 481h368q0 90 -47 139.5t-129 49.5 q-78 0 -130 -50.5t-62 -138.5z" />
<glyph unicode="&#xe7;" horiz-adv-x="944" d="M43 416q0 123 54.5 219t147.5 148.5t210 52.5q158 0 239 -93v74h174v-321h-159q-12 80 -63.5 125t-137.5 45q-102 0 -164.5 -65.5t-62.5 -174.5q0 -117 69.5 -188.5t184.5 -71.5q82 0 146 29.5t122 83.5l78 -148q-129 -131 -330 -149l-27 -99q74 -10 112 -49t38 -92 q0 -68 -49.5 -102.5t-122.5 -34.5q-92 0 -180 47v72q78 -25 114 -25q35 0 55.5 14.5t20.5 44.5q0 61 -119 68l62 156q-121 8 -214.5 65t-145.5 152.5t-52 216.5z" />
<glyph unicode="&#xe8;" horiz-adv-x="937" d="M43 408q0 125 56.5 222t156.5 151.5t225 54.5q188 0 297 -116t109 -304v-51h-604q16 -96 82.5 -148.5t166.5 -52.5q152 0 273 104l72 -149q-68 -66 -162 -104t-207 -38q-209 0 -337 116t-128 315zM232 1292h241l97 -331h-146zM283 481h370q0 90 -47 139.5t-129 49.5 q-80 0 -131 -49.5t-63 -139.5z" />
<glyph unicode="&#xe9;" horiz-adv-x="937" d="M43 408q0 125 56.5 222t156.5 151.5t225 54.5q188 0 297 -116t109 -304v-51h-604q16 -96 82.5 -148.5t166.5 -52.5q152 0 273 104l72 -149q-68 -66 -162 -104t-207 -38q-209 0 -337 116t-128 315zM283 481h370q0 90 -47 139.5t-129 49.5q-80 0 -131 -49.5t-63 -139.5z M428 961l97 331h241l-192 -331h-146z" />
<glyph unicode="&#xea;" horiz-adv-x="937" d="M43 408q0 125 56.5 222t156.5 151.5t225 54.5q188 0 297 -116t109 -304v-51h-604q16 -96 82.5 -148.5t166.5 -52.5q152 0 273 104l72 -149q-68 -66 -162 -104t-207 -38q-209 0 -337 116t-128 315zM199 936l174 344h256l172 -344h-164l-137 242l-137 -242h-164zM283 481 h370q0 90 -47 139.5t-129 49.5q-80 0 -131 -49.5t-63 -139.5z" />
<glyph unicode="&#xeb;" horiz-adv-x="937" d="M43 408q0 125 56.5 222t156.5 151.5t225 54.5q188 0 297 -116t109 -304v-51h-604q16 -96 82.5 -148.5t166.5 -52.5q152 0 273 104l72 -149q-68 -66 -162 -104t-207 -38q-209 0 -337 116t-128 315zM131 1094q0 59 39 95t99 36q57 0 96 -36t39 -95q0 -61 -39 -96t-96 -35 q-60 0 -99 34.5t-39 96.5zM283 481h370q0 90 -47 139.5t-129 49.5q-80 0 -131 -49.5t-63 -139.5zM596 1094q0 59 39 95t96 36q59 0 98.5 -36t39.5 -95q0 -61 -39 -96t-99 -35q-57 0 -96 34.5t-39 96.5z" />
<glyph unicode="&#xec;" horiz-adv-x="575" d="M19 1290h241l97 -331h-146zM37 0v162h137v489h-129v164h373v-653h123v-162h-504z" />
<glyph unicode="&#xed;" horiz-adv-x="575" d="M37 0v162h137v489h-129v164h373v-653h123v-162h-504zM215 959l97 331h241l-192 -331h-146z" />
<glyph unicode="&#xee;" horiz-adv-x="575" d="M-14 934l174 344h256l172 -344h-164l-137 242l-137 -242h-164zM37 0v162h137v489h-129v164h373v-653h123v-162h-504z" />
<glyph unicode="&#xef;" horiz-adv-x="575" d="M-82 1092q0 59 39 95t99 36q57 0 96 -36t39 -95q0 -61 -39 -96t-96 -35q-60 0 -99 34.5t-39 96.5zM37 0v162h137v489h-129v164h373v-653h123v-162h-504zM383 1092q0 59 39 95t96 36q59 0 98.5 -36t39.5 -95q0 -61 -39 -96t-99 -35q-57 0 -96 34.5t-39 96.5z" />
<glyph unicode="&#xf0;" horiz-adv-x="997" d="M61 383q0 178 107.5 291.5t294.5 113.5q94 0 174 -45q-55 100 -188 234l-248 -111l-62 125l197 88q-111 92 -205 160l115 141q156 -115 274 -219l242 107l63 -123l-196 -88q309 -313 309 -641q0 -133 -55.5 -231.5t-155.5 -151.5t-231 -53q-203 0 -319 111.5t-116 291.5z M293 383q0 -92 54 -153.5t149 -61.5q100 0 153 63.5t53 161.5t-55 154.5t-151 56.5t-149.5 -59.5t-53.5 -161.5z" />
<glyph unicode="&#xf1;" horiz-adv-x="1091" d="M37 0v154h125v508h-125v153h358l2 -76q150 96 287 97q125 0 199.5 -77t74.5 -204v-401h121v-154h-473v154h105v360q0 70 -33 109t-92 39q-82 0 -176 -56v-452h110v-154h-483zM217 973q10 131 65.5 192.5t139.5 61.5q37 0 72.5 -12.5t95.5 -36.5q86 -39 119 -39 q68 0 81 80h111q-8 -125 -61.5 -190.5t-139.5 -65.5q-39 0 -80 13t-96 38q-10 4 -49 20.5t-68 16.5q-68 0 -75 -78h-115z" />
<glyph unicode="&#xf2;" horiz-adv-x="983" d="M43 408q0 127 55.5 224t156.5 150.5t234 53.5t235.5 -53.5t159 -149.5t56.5 -223q0 -129 -56.5 -227.5t-158.5 -152t-236 -53.5q-133 0 -234 53.5t-156.5 152t-55.5 225.5zM221 1292h241l97 -331h-146zM279 408q0 -111 57 -177.5t153 -64.5q99 -2 157.5 64.5t58.5 179.5 q0 109 -58.5 173t-157.5 64q-96 0 -153 -64.5t-57 -174.5z" />
<glyph unicode="&#xf3;" horiz-adv-x="983" d="M43 408q0 127 55.5 224t156.5 150.5t234 53.5t235.5 -53.5t159 -149.5t56.5 -223q0 -129 -56.5 -227.5t-158.5 -152t-236 -53.5q-133 0 -234 53.5t-156.5 152t-55.5 225.5zM279 408q0 -111 57 -177.5t153 -64.5q99 -2 157.5 64.5t58.5 179.5q0 109 -58.5 173t-157.5 64 q-96 0 -153 -64.5t-57 -174.5zM417 961l97 331h241l-192 -331h-146z" />
<glyph unicode="&#xf4;" horiz-adv-x="983" d="M43 408q0 127 55.5 224t156.5 150.5t234 53.5t235.5 -53.5t159 -149.5t56.5 -223q0 -129 -56.5 -227.5t-158.5 -152t-236 -53.5q-133 0 -234 53.5t-156.5 152t-55.5 225.5zM188 936l174 344h256l172 -344h-164l-137 242l-137 -242h-164zM279 408q0 -111 57 -177.5 t153 -64.5q99 -2 157.5 64.5t58.5 179.5q0 109 -58.5 173t-157.5 64q-96 0 -153 -64.5t-57 -174.5z" />
<glyph unicode="&#xf5;" horiz-adv-x="983" d="M43 408q0 127 55.5 224t156.5 150.5t234 53.5t235.5 -53.5t159 -149.5t56.5 -223q0 -129 -56.5 -227.5t-158.5 -152t-236 -53.5q-133 0 -234 53.5t-156.5 152t-55.5 225.5zM147 973q10 131 65.5 192.5t139.5 61.5q37 0 72.5 -12.5t95.5 -36.5q86 -39 119 -39q68 0 81 80 h111q-8 -125 -61.5 -190.5t-139.5 -65.5q-39 0 -80 13t-96 38q-10 4 -49 20.5t-68 16.5q-68 0 -75 -78h-115zM279 408q0 -111 57 -177.5t153 -64.5q99 -2 157.5 64.5t58.5 179.5q0 109 -58.5 173t-157.5 64q-96 0 -153 -64.5t-57 -174.5z" />
<glyph unicode="&#xf6;" horiz-adv-x="983" d="M43 408q0 127 55.5 224t156.5 150.5t234 53.5t235.5 -53.5t159 -149.5t56.5 -223q0 -129 -56.5 -227.5t-158.5 -152t-236 -53.5q-133 0 -234 53.5t-156.5 152t-55.5 225.5zM120 1094q0 59 39 95t99 36q57 0 96 -36t39 -95q0 -61 -39 -96t-96 -35q-60 0 -99 34.5t-39 96.5 zM279 408q0 -111 57 -177.5t153 -64.5q99 -2 157.5 64.5t58.5 179.5q0 109 -58.5 173t-157.5 64q-96 0 -153 -64.5t-57 -174.5zM585 1094q0 59 39 95t96 36q59 0 98.5 -36t39.5 -95q0 -61 -39 -96t-99 -35q-57 0 -96 34.5t-39 96.5z" />
<glyph unicode="&#xf7;" horiz-adv-x="1216" d="M154 504v147h909v-147h-909zM502 92v213h213v-213h-213zM502 850v213h213v-213h-213z" />
<glyph unicode="&#xf8;" horiz-adv-x="1030" d="M43 408q0 127 55.5 224t156.5 150.5t234 53.5q98 0 173 -27l63 121l82 -37l-64 -121q95 -55 146 -148.5t51 -213.5q0 -129 -56.5 -227.5t-158.5 -152t-236 -53.5q-82 0 -155 23l-66 -125l-82 41l64 119q-98 53 -152.5 149.5t-54.5 223.5zM279 408q-1 -126 67 -189 l221 416q-33 12 -78 12q-96 0 -153 -64.5t-57 -174.5zM426 174q31 -8 68 -8q96 0 153.5 66.5t57.5 177.5t-62 176z" />
<glyph unicode="&#xf9;" horiz-adv-x="1083" d="M23 662v153h362v-520q0 -66 32 -103.5t93 -37.5q92 0 180 65v443h-110v153h356v-661h123v-154h-352l-7 86q-141 -106 -288 -106q-135 0 -206 78.5t-71 201.5v402h-112zM242 1292h241l97 -331h-146z" />
<glyph unicode="&#xfa;" horiz-adv-x="1083" d="M23 662v153h362v-520q0 -66 32 -103.5t93 -37.5q92 0 180 65v443h-110v153h356v-661h123v-154h-352l-7 86q-141 -106 -288 -106q-135 0 -206 78.5t-71 201.5v402h-112zM438 961l97 331h241l-192 -331h-146z" />
<glyph unicode="&#xfb;" horiz-adv-x="1083" d="M23 662v153h362v-520q0 -66 32 -103.5t93 -37.5q92 0 180 65v443h-110v153h356v-661h123v-154h-352l-7 86q-141 -106 -288 -106q-135 0 -206 78.5t-71 201.5v402h-112zM209 936l174 344h256l172 -344h-164l-137 242l-137 -242h-164z" />
<glyph unicode="&#xfc;" horiz-adv-x="1083" d="M23 662v153h362v-520q0 -66 32 -103.5t93 -37.5q92 0 180 65v443h-110v153h356v-661h123v-154h-352l-7 86q-141 -106 -288 -106q-135 0 -206 78.5t-71 201.5v402h-112zM141 1094q0 59 39 95t99 36q57 0 96 -36t39 -95q0 -61 -39 -96t-96 -35q-60 0 -99 34.5t-39 96.5z M606 1094q0 59 39 95t96 36q59 0 98.5 -36t39.5 -95q0 -61 -39 -96t-99 -35q-57 0 -96 34.5t-39 96.5z" />
<glyph unicode="&#xfd;" horiz-adv-x="1069" d="M8 662v153h467v-153h-104l194 -433l180 433h-114v153h434v-153h-98l-326 -715q-53 -117 -90 -172.5t-97.5 -84t-164.5 -28.5h-99v184h82q78 0 116 22.5t69 96.5l37 88h-74l-303 609h-109zM483 961l97 331h241l-192 -331h-146z" />
<glyph unicode="&#xfe;" horiz-adv-x="1097" d="M27 995v156h368v-401q121 92 273 92q170 0 274.5 -113t104.5 -305q0 -133 -51.5 -231.5t-141.5 -151.5t-201 -53q-76 0 -142.5 23.5t-115.5 66.5v-285h133v-155h-497v155h116v1202h-120zM395 240q37 -33 83 -50.5t93 -17.5q99 0 159.5 63.5t60.5 180.5q0 111 -58.5 176 t-152.5 65q-100 0 -185 -77v-340z" />
<glyph unicode="&#xff;" horiz-adv-x="1069" d="M8 662v153h467v-153h-104l194 -433l180 433h-114v153h434v-153h-98l-326 -715q-53 -117 -90 -172.5t-97.5 -84t-164.5 -28.5h-99v184h82q78 0 116 22.5t69 96.5l37 88h-74l-303 609h-109zM186 1094q0 59 39 95t99 36q57 0 96 -36t39 -95q0 -61 -39 -96t-96 -35 q-60 0 -99 34.5t-39 96.5zM651 1094q0 59 39 95t96 36q59 0 98.5 -36t39.5 -95q0 -61 -39 -96t-99 -35q-57 0 -96 34.5t-39 96.5z" />
<glyph unicode="&#x152;" horiz-adv-x="2041" d="M84 586q0 178 84 310t237.5 203.5t360.5 71.5h1161v-385h-182v213h-479v-321h250v125h141v-414h-141v125h-250v-342h487v234h184v-406h-1169q-207 0 -361.5 70.5t-238.5 203t-84 312.5zM379 590q0 -190 114.5 -304t309.5 -114h182v827h-182q-197 -2 -310.5 -110.5 t-113.5 -298.5z" />
<glyph unicode="&#x153;" horiz-adv-x="1595" d="M43 408q0 125 55.5 222t154.5 151.5t228 54.5q106 0 193.5 -42t144.5 -118q55 76 140 118t188 42q184 0 290.5 -116t106.5 -306v-49h-604q14 -94 80.5 -148.5t169.5 -54.5q72 0 140.5 26.5t117.5 71.5l84 -143q-66 -66 -161 -103t-206 -37t-201 41t-149 117 q-57 -74 -143 -116t-191 -42q-129 0 -228 55.5t-154.5 153t-55.5 222.5zM274 408q0 -111 57.5 -176.5t155.5 -67.5q97 0 154 66.5t57 177.5q0 109 -57 174t-154 65q-98 0 -155.5 -65.5t-57.5 -173.5zM938 479h379q0 90 -48 140.5t-130 50.5q-86 0 -138.5 -50.5t-62.5 -140.5 z" />
<glyph unicode="&#x178;" horiz-adv-x="1347" d="M25 999v172h571v-172h-135l250 -366l241 366h-135v172h506v-172h-133l-369 -536v-291h148v-172h-576v172h146v289l-385 538h-129zM338 1450q0 59 39 95t99 36q57 0 96 -36t39 -95q0 -61 -39 -96t-96 -35q-60 0 -99 34.5t-39 96.5zM803 1450q0 59 39 95t96 36 q59 0 98.5 -36t39.5 -95q0 -61 -39 -96t-99 -35q-57 0 -96 34.5t-39 96.5z" />
<glyph unicode="&#x2c6;" horiz-adv-x="1011" d="M205 936l174 344h256l172 -344h-164l-137 242l-137 -242h-164z" />
<glyph unicode="&#x2dc;" horiz-adv-x="1093" d="M205 973q10 131 65.5 192.5t139.5 61.5q37 0 72.5 -12.5t95.5 -36.5q86 -39 119 -39q68 0 81 80h111q-8 -125 -61.5 -190.5t-139.5 -65.5q-39 0 -80 13t-96 38q-10 4 -49 20.5t-68 16.5q-68 0 -75 -78h-115z" />
<glyph unicode="&#x2000;" horiz-adv-x="824" />
<glyph unicode="&#x2001;" horiz-adv-x="1648" />
<glyph unicode="&#x2002;" horiz-adv-x="824" />
<glyph unicode="&#x2003;" horiz-adv-x="1648" />
<glyph unicode="&#x2004;" horiz-adv-x="549" />
<glyph unicode="&#x2005;" horiz-adv-x="412" />
<glyph unicode="&#x2006;" horiz-adv-x="274" />
<glyph unicode="&#x2007;" horiz-adv-x="274" />
<glyph unicode="&#x2008;" horiz-adv-x="206" />
<glyph unicode="&#x2009;" horiz-adv-x="329" />
<glyph unicode="&#x200a;" horiz-adv-x="91" />
<glyph unicode="&#x2010;" horiz-adv-x="757" d="M106 403v160h545v-160h-545z" />
<glyph unicode="&#x2011;" horiz-adv-x="757" d="M106 403v160h545v-160h-545z" />
<glyph unicode="&#x2012;" horiz-adv-x="757" d="M106 403v160h545v-160h-545z" />
<glyph unicode="&#x2013;" horiz-adv-x="1341" d="M0 403v160h1341v-160h-1341z" />
<glyph unicode="&#x2014;" horiz-adv-x="1607" d="M0 403v160h1608v-160h-1608z" />
<glyph unicode="&#x2018;" horiz-adv-x="448" d="M123 739v191q0 154 58.5 227.5t191.5 73.5v-92q-61 -6 -89 -44t-28 -122h115v-234h-248z" />
<glyph unicode="&#x2019;" horiz-adv-x="448" d="M74 741v92q61 6 89 44t28 122h-115v233h248v-190q0 -154 -58.5 -227.5t-191.5 -73.5z" />
<glyph unicode="&#x201a;" horiz-adv-x="448" d="M74 -166q61 6 89 44t28 122h-115v233h248v-190q0 -154 -58.5 -227.5t-191.5 -73.5v92z" />
<glyph unicode="&#x201c;" horiz-adv-x="782" d="M123 739v191q0 154 58.5 227.5t191.5 73.5v-92q-61 -6 -89 -44t-28 -122h115v-234h-248zM457 739v191q0 154 58 227.5t192 73.5v-92q-61 -6 -89 -44t-28 -122h115v-234h-248z" />
<glyph unicode="&#x201d;" horiz-adv-x="782" d="M74 741v92q61 6 89 44t28 122h-115v233h248v-190q0 -154 -58.5 -227.5t-191.5 -73.5zM410 741v92q61 6 89 44t28 122h-115v233h248v-190q0 -154 -58.5 -227.5t-191.5 -73.5z" />
<glyph unicode="&#x201e;" horiz-adv-x="782" d="M74 -166q61 6 89 44t28 122h-115v233h248v-190q0 -154 -58.5 -227.5t-191.5 -73.5v92zM410 -166q61 6 89 44t28 122h-115v233h248v-190q0 -154 -58.5 -227.5t-191.5 -73.5v92z" />
<glyph unicode="&#x2022;" horiz-adv-x="575" d="M78 510q0 82 59.5 141.5t151.5 59.5t150.5 -56.5t58.5 -144.5q0 -86 -58.5 -144.5t-150.5 -58.5q-90 0 -150.5 61.5t-60.5 141.5z" />
<glyph unicode="&#x2026;" horiz-adv-x="1325" d="M123 0v231h244v-231h-244zM520 0v231h244v-231h-244zM918 0v231h244v-231h-244z" />
<glyph unicode="&#x202f;" horiz-adv-x="329" />
<glyph unicode="&#x2039;" horiz-adv-x="761" d="M102 575l318 437h186l-225 -434l225 -433h-186z" />
<glyph unicode="&#x203a;" horiz-adv-x="761" d="M172 145l227 437l-227 430h186l320 -428l-320 -439h-186z" />
<glyph unicode="&#x205f;" horiz-adv-x="412" />
<glyph unicode="&#x20ac;" horiz-adv-x="1439" d="M-29 410v108h117q-4 45 -4 68q0 43 2 63h-115v107h133q51 201 212 318.5t391 117.5q129 0 229 -41t162 -117v137h190v-393l-164 -2q-59 113 -146 167t-212 54q-135 0 -229.5 -64.5t-135.5 -176.5h467v-107h-491q-4 -37 -4 -59q0 -27 4 -72h491v-108h-465 q41 -111 132.5 -173.5t212.5 -62.5q131 0 222 67.5t130 204.5l217 -84q-55 -186 -208 -284t-378 -101q-236 2 -403.5 117t-221.5 316h-135z" />
<glyph unicode="&#x2122;" horiz-adv-x="1798" d="M137 885v268h594v-268h-113v174h-112v-484h96v-92h-338v92h98v484h-112v-174h-113zM821 483v95h82v481h-82v94h246l178 -424l185 424h251v-94h-82v-481h82v-95h-297v95h84v409l-192 -467h-64l-198 469v-411h86v-95h-279z" />
<glyph unicode="&#x25fc;" horiz-adv-x="819" d="M0 0v819h819v-819h-819z" />
</font>
</defs>
</svg>
