<svg xmlns="http://www.w3.org/2000/svg" viewBox="0 0 106.199 104.623"><path d="M53.1,24.342A27.969,27.969,0,1,0,81.068,52.311,28,28,0,0,0,53.1,24.342Z"/><path d="M89.43,58.641,106.2,52.2,89.4,45.833l13.555-11.785L85,33.807,93.706,18.1l-16.96,5.916L79.555,6.272,65.641,17.632,62.213,0,53.024,15.433,43.772.038,40.415,17.683,26.456,6.38,29.337,24.11,12.353,18.263l8.771,15.675-17.959.315,13.6,11.729L0,52.42,16.795,58.79,3.239,70.575l17.96.241-8.707,15.71,16.96-5.916L26.644,98.351l13.913-11.36,3.429,17.632L53.175,89.19l9.252,15.4L65.783,86.94l13.96,11.3L76.862,80.513,93.846,86.36,85.074,70.685l17.959-.315ZM53.1,84.28A31.969,31.969,0,1,1,85.068,52.311,32,32,0,0,1,53.1,84.28Z"/></svg>